<?xml version="1.0" encoding="utf-8"?>
<!-- Generator: Adobe Illustrator 14.0.0, SVG Export Plug-In . SVG Version: 6.00 Build 43363)  -->
<!DOCTYPE svg PUBLIC "-//W3C//DTD SVG 1.1//EN" "http://www.w3.org/Graphics/SVG/1.1/DTD/svg11.dtd">
<svg version="1.1" id="Calque_1" xmlns="http://www.w3.org/2000/svg" xmlns:xlink="http://www.w3.org/1999/xlink" x="0px" y="0px"
	 width="221.703px" height="220.882px" viewBox="0 0 221.703 220.882" enable-background="new 0 0 221.703 220.882"
	 xml:space="preserve">
<g>
	<polygon fill="#0088FF" stroke="#0088FF" stroke-width="4" points="124.396,101.7 123.242,101.7 107.354,132.827 101.423,121.225 
		111.381,101.7 107.189,101.7 99.301,117.086 91.467,101.7 87.221,101.7 97.178,121.225 91.303,132.827 75.414,101.7 71.17,101.7 
		90.758,140.034 91.847,140.034 99.301,125.366 106.809,140.034 107.896,140.034 124.396,107.654 	"/>
	<path fill="#0088FF" stroke="#0088FF" stroke-width="4" d="M136.975,105.274V116h15.223v3.575h-15.223v20.431h-3.97V101.7h20.769
		v3.574H136.975z"/>
	<g>
		<path fill="#0088FF" d="M29.408,73.486c-0.407,0.597-0.22,2.002,0.15,1.959c1.302-0.151,35.565-33.19,76.23-27.188
			c40.663,5.999,51.211,41.188,54.387,40.958c0.768-0.055,6.305-1.131,7.091-2.769c3.065-6.392-2.043-22.43-3.119-30.585
			c-1.415-10.752-4.663-9.686-13.257-14.939C99.148,9.287,36.427,63.17,29.408,73.486z"/>
		<path fill="#1E2E54" d="M29.296,73.698c0,0,38.489-34.194,79.155-28.194c40.662,6,54.761,42.018,57.936,41.789
			c3.178-0.23,1.839-23.432,0.422-34.184c-1.416-10.752-0.323-14.265-8.918-19.519C104.795,1.129,46.733,32.596,29.296,73.698z"/>
		
			<linearGradient id="SVGID_1_" gradientUnits="userSpaceOnUse" x1="-1123.1914" y1="-80.6807" x2="-1153.5581" y2="-189.7115" gradientTransform="matrix(-0.5609 -0.8279 0.8279 -0.5609 -422.3582 -955.8771)">
			<stop  offset="0.2393" style="stop-color:#00103F;stop-opacity:0.2144"/>
			<stop  offset="0.3497" style="stop-color:#0088FF;stop-opacity:0.32"/>
			<stop  offset="0.7975" style="stop-color:#001C3F;stop-opacity:0.91"/>
		</linearGradient>
		<path opacity="0.8" fill="url(#SVGID_1_)" d="M105.572,20.615c-33.713,2.493-64.578,25.347-76.027,52.644
			c0,0,38.574-34.007,77.607-27.805c33.026,5.247,53.801,28.562,56.811,28.46c3.007-0.104,3.142-13.218,2.197-23.341
			c-0.944-10.127-1.146-12.108-9.316-16.945C140.414,23.902,122.655,19.352,105.572,20.615z"/>
		
			<linearGradient id="SVGID_2_" gradientUnits="userSpaceOnUse" x1="-1128.5005" y1="-205.4644" x2="-1142.1763" y2="-71.8612" gradientTransform="matrix(-0.5609 -0.8279 0.8279 -0.5609 -422.3582 -955.8771)">
			<stop  offset="0.3926" style="stop-color:#00103F;stop-opacity:0.2144"/>
			<stop  offset="0.4356" style="stop-color:#001C3F;stop-opacity:0.91"/>
			<stop  offset="0.4479" style="stop-color:#FFFFFF;stop-opacity:0.32"/>
		</linearGradient>
		<path opacity="0.31" fill="url(#SVGID_2_)" d="M105.572,20.615c-33.713,2.493-64.578,25.347-76.027,52.644
			c0,0,38.574-34.007,77.607-27.805c33.026,5.247,53.801,28.562,56.811,28.46c3.007-0.104,3.142-13.218,2.197-23.341
			c-0.944-10.127-1.146-12.108-9.316-16.945C140.414,23.902,122.655,19.352,105.572,20.615z"/>
		
			<linearGradient id="SVGID_3_" gradientUnits="userSpaceOnUse" x1="-1155.3179" y1="-62.8242" x2="-1079.6917" y2="-176.5161" gradientTransform="matrix(-0.5877 -0.9085 0.7051 -0.6873 -467.8279 -1039.5103)">
			<stop  offset="0" style="stop-color:#000000"/>
			<stop  offset="0.2454" style="stop-color:#000000;stop-opacity:0"/>
		</linearGradient>
		<path opacity="0.74" fill="url(#SVGID_3_)" d="M43.862,81.326c0,0,29.041-41.396,64.589-35.822
			c14.559,2.283,27.026,8.775,36.126,16.634c13.46,11.622,20.177,25.337,21.81,25.155c2.926-0.326,1.962-17.444,0.898-29.023
			c-0.633-6.871-1.033-11.402-1.646-14.91c-0.582-3.334-2.254-6.018-6.283-8.731C112.207,2.873,59.02,41.127,43.862,81.326z"/>
	</g>
	<g>
		<path fill="#0088FF" d="M117.768,200.131c0.716,0.061,1.838-0.785,1.621-1.087c-0.766-1.051-46.045-14.572-60.685-52.666
			c-14.64-38.092,10.763-63.634,9.017-66.267c-0.424-0.64-4.168-5.642-5.967-5.522c-7.023,0.464-18.402,12.705-24.931,17.61
			c-8.606,6.469-6.102,8.756-6.454,18.75C28.241,171.123,105.424,199.091,117.768,200.131z"/>
		<path fill="#1E2E54" d="M118.006,200.123c0,0-48.339-16.612-62.98-54.707c-14.638-38.091,9.636-67.845,7.889-70.479
			c-1.75-2.636-21.16,9.833-29.768,16.302c-8.607,6.471-12.18,7.235-12.531,17.231C18.432,170.217,73.957,205.085,118.006,200.123z"
			/>
		
			<linearGradient id="SVGID_4_" gradientUnits="userSpaceOnUse" x1="-1087.1836" y1="-1841.7534" x2="-1117.3291" y2="-1949.9902" gradientTransform="matrix(-0.4456 0.8953 -0.8953 -0.4456 -2116.8306 282.8743)">
			<stop  offset="0.2393" style="stop-color:#00103F;stop-opacity:0.2144"/>
			<stop  offset="0.3497" style="stop-color:#0088FF;stop-opacity:0.32"/>
			<stop  offset="0.7975" style="stop-color:#001C3F;stop-opacity:0.91"/>
		</linearGradient>
		<path opacity="0.8" fill="url(#SVGID_4_)" d="M34.906,160.042c18.595,27.941,53.408,43.489,82.6,40.082
			c0,0-48.221-16.779-61.891-53.561c-11.566-31.119-1.534-60.453-3.089-63.007c-1.556-2.551-12.962,3.729-21.257,9.481
			c-8.299,5.753-9.913,6.897-10.111,16.319C20.76,128.308,25.481,145.885,34.906,160.042z"/>
		
			<linearGradient id="SVGID_5_" gradientUnits="userSpaceOnUse" x1="-1092.4561" y1="-1965.6309" x2="-1106.0327" y2="-1832.9962" gradientTransform="matrix(-0.4456 0.8953 -0.8953 -0.4456 -2116.8306 282.8743)">
			<stop  offset="0.3926" style="stop-color:#00103F;stop-opacity:0.2144"/>
			<stop  offset="0.4356" style="stop-color:#001C3F;stop-opacity:0.91"/>
			<stop  offset="0.4479" style="stop-color:#FFFFFF;stop-opacity:0.32"/>
		</linearGradient>
		<path opacity="0.31" fill="url(#SVGID_5_)" d="M34.906,160.042c18.595,27.941,53.408,43.489,82.6,40.082
			c0,0-48.221-16.779-61.891-53.561c-11.566-31.119-1.534-60.453-3.089-63.007c-1.556-2.551-12.962,3.729-21.257,9.481
			c-8.299,5.753-9.913,6.897-10.111,16.319C20.76,128.308,25.481,145.885,34.906,160.042z"/>
		
			<linearGradient id="SVGID_6_" gradientUnits="userSpaceOnUse" x1="-829.0933" y1="-1887.3511" x2="-754.0063" y2="-2000.2323" gradientTransform="matrix(-0.5027 0.9582 -0.945 -0.2765 -2167.0652 363.7063)">
			<stop  offset="0" style="stop-color:#000000"/>
			<stop  offset="0.2454" style="stop-color:#000000;stop-opacity:0"/>
		</linearGradient>
		<path opacity="0.74" fill="url(#SVGID_6_)" d="M117.499,183.807c0,0-49.96-4.93-62.474-38.391
			c-5.123-13.703-5.589-27.65-3.23-39.353c3.487-17.308,12.073-29.804,11.119-31.127c-1.708-2.373-16.042,6.811-25.536,13.376
			c-5.636,3.896-9.358,6.453-12.094,8.693c-2.598,2.13-4.104,4.882-4.485,9.691C16.327,162.957,75.344,190.301,117.499,183.807z"/>
	</g>
	<g>
		<path fill="#1B2D56" d="M175.707,35.906c23.615,20.369,39.184,46.152,45.996,72.637c-0.957-30.158-14.049-59.838-38.699-81.096
			C158.352,6.188,127.072-2.4,97.101,1.088C124.299,3.932,152.092,15.541,175.707,35.906z"/>
		<linearGradient id="SVGID_7_" gradientUnits="userSpaceOnUse" x1="97.1006" y1="54.1045" x2="221.7031" y2="54.1045">
			<stop  offset="0.362" style="stop-color:#FFFFFF;stop-opacity:0"/>
			<stop  offset="0.5706" style="stop-color:#000000"/>
		</linearGradient>
		<path opacity="0.34" fill="url(#SVGID_7_)" d="M175.707,35.572c23.615,20.369,39.184,46.152,45.996,72.637
			c-0.957-30.158-14.049-59.838-38.699-81.096C158.352,5.854,127.072-2.734,97.101,0.754
			C124.299,3.598,152.092,15.207,175.707,35.572z"/>
		<linearGradient id="SVGID_8_" gradientUnits="userSpaceOnUse" x1="150.1875" y1="57.1719" x2="221.4697" y2="57.1719">
			<stop  offset="0.4233" style="stop-color:#FFFFFF;stop-opacity:0.27"/>
			<stop  offset="0.5072" style="stop-color:#FFFFFF;stop-opacity:0.2307"/>
			<stop  offset="1" style="stop-color:#FFFFFF;stop-opacity:0"/>
		</linearGradient>
		<path fill="url(#SVGID_8_)" d="M221.47,103.822c-2.03-28.632-15.012-56.482-38.466-76.708
			c-10.021-8.642-21.137-15.19-32.816-19.685c14.081,8.755,27.148,20.265,38.291,34.388c8.584,10.881,15.441,22.467,20.568,34.375
			c5.463,9.931,9.613,20.264,12.389,30.721C221.462,105.883,221.473,104.853,221.47,103.822z"/>
	</g>
	<g>
		<path fill="#1B2D56" d="M149.09,201.709c-28.76,12.06-58.779,14.502-85.523,8.796c27.422,12.585,59.826,14.097,89.844,1.506
			c30.02-12.592,51.649-36.765,61.887-65.148C200.627,169.941,177.847,189.647,149.09,201.709z"/>
		
			<linearGradient id="SVGID_9_" gradientUnits="userSpaceOnUse" x1="-1226.4937" y1="-1125.625" x2="-1101.8975" y2="-1125.625" gradientTransform="matrix(-0.4457 0.8952 -0.8952 -0.4457 -1386.4736 719.4963)">
			<stop  offset="0.362" style="stop-color:#FFFFFF;stop-opacity:0"/>
			<stop  offset="0.5706" style="stop-color:#000000"/>
		</linearGradient>
		<path opacity="0.34" fill="url(#SVGID_9_)" d="M149.389,201.857c-28.76,12.06-58.779,14.502-85.523,8.796
			c27.424,12.587,59.828,14.097,89.844,1.507c30.02-12.592,51.648-36.764,61.889-65.149
			C200.926,170.091,178.146,189.796,149.389,201.857z"/>
		
			<linearGradient id="SVGID_10_" gradientUnits="userSpaceOnUse" x1="-1173.4072" y1="-1122.5571" x2="-1102.1309" y2="-1122.5571" gradientTransform="matrix(-0.4457 0.8952 -0.8952 -0.4457 -1386.4736 719.4963)">
			<stop  offset="0.4233" style="stop-color:#FFFFFF;stop-opacity:0.27"/>
			<stop  offset="0.5072" style="stop-color:#FFFFFF;stop-opacity:0.2307"/>
			<stop  offset="1" style="stop-color:#FFFFFF;stop-opacity:0"/>
		</linearGradient>
		<path opacity="0.59" fill="url(#SVGID_10_)" d="M67.896,212.399c26.535,10.945,57.252,11.739,85.812-0.239
			c12.202-5.12,23.019-12.151,32.247-20.604c-14.112,8.703-30.241,15.271-47.85,18.949c-13.566,2.833-26.994,3.809-39.939,3.088
			c-11.325,0.465-22.425-0.426-33.022-2.603C66.056,211.475,66.973,211.942,67.896,212.399z"/>
	</g>
	<g>
		<path fill="#1B2D56" d="M11.903,101.516c2.958-31.045,14.987-58.656,32.651-79.531C20.508,40.207,3.865,68.053,0.782,100.458
			c-3.083,32.404,8.003,62.892,28.183,85.323C15.554,161.948,8.948,132.56,11.903,101.516z"/>
		
			<linearGradient id="SVGID_11_" gradientUnits="userSpaceOnUse" x1="-1764.8125" y1="995.5078" x2="-1640.1973" y2="995.5078" gradientTransform="matrix(-0.5783 -0.8158 0.8158 -0.5783 -1760.5144 -708.9056)">
			<stop  offset="0.362" style="stop-color:#FFFFFF;stop-opacity:0"/>
			<stop  offset="0.5706" style="stop-color:#000000"/>
		</linearGradient>
		<path opacity="0.34" fill="url(#SVGID_11_)" d="M11.631,101.71c2.958-31.045,14.988-58.657,32.652-79.532
			C20.234,40.4,3.594,68.247,0.51,100.65c-3.084,32.406,8.002,62.891,28.182,85.326C15.28,162.142,8.675,132.755,11.631,101.71z"/>
		
			<linearGradient id="SVGID_12_" gradientUnits="userSpaceOnUse" x1="-1711.7227" y1="998.5742" x2="-1640.4287" y2="998.5742" gradientTransform="matrix(-0.5783 -0.8158 0.8158 -0.5783 -1760.5144 -708.9056)">
			<stop  offset="0.4233" style="stop-color:#FFFFFF;stop-opacity:0.27"/>
			<stop  offset="0.5072" style="stop-color:#FFFFFF;stop-opacity:0.2307"/>
			<stop  offset="1" style="stop-color:#FFFFFF;stop-opacity:0"/>
		</linearGradient>
		<path opacity="0.69" fill="url(#SVGID_12_)" d="M40.84,24.903C18.657,43.121,3.445,69.82,0.51,100.65
			c-1.252,13.176-0.165,26.028,2.924,38.156c-1.002-16.552,0.829-33.869,5.905-51.125c3.912-13.296,9.396-25.592,16.147-36.662
			c4.941-10.201,10.969-19.562,17.895-27.875C42.523,23.721,41.679,24.308,40.84,24.903z"/>
	</g>
	<g>
		<path fill="#0088FF" d="M185.941,61.314c-0.293-0.657-1.575-1.237-1.734-0.899c-0.553,1.177,9.369,47.378-16.988,78.535
			c-26.355,31.154-61.56,21.624-63.027,24.421c-0.357,0.678-2.35,5.91-1.379,7.434c3.785,5.932,19.988,10.021,27.43,13.385
			c9.812,4.438,10.611,1.139,19.543-3.358C203.564,153.756,190.965,72.637,185.941,61.314z"/>
		<path fill="#1E2E54" d="M185.82,61.108c0,0,8.684,50.369-17.674,81.529c-26.355,31.153-64.118,24.181-65.588,26.98
			c-1.469,2.801,18.801,13.823,28.611,18.258c9.811,4.436,12.201,7.196,21.133,2.697C207.49,162.791,211.356,97.34,185.82,61.108z"
			/>
		
			<linearGradient id="SVGID_13_" gradientUnits="userSpaceOnUse" x1="731.7832" y1="-534.0981" x2="701.6387" y2="-642.3312" gradientTransform="matrix(0.9993 -0.0399 0.0399 0.9993 -536.6445 746.6188)">
			<stop  offset="0.2393" style="stop-color:#00103F;stop-opacity:0.2144"/>
			<stop  offset="0.3497" style="stop-color:#0088FF;stop-opacity:0.32"/>
			<stop  offset="0.7975" style="stop-color:#001C3F;stop-opacity:0.91"/>
		</linearGradient>
		<path opacity="0.8" fill="url(#SVGID_13_)" d="M190.646,153.239c15.554-29.737,12.442-67.738-4.587-91.692
			c0,0,8.481,50.346-17.19,80.02c-21.723,25.107-52.266,30.424-53.756,33.014c-1.488,2.592,9.502,9.57,18.535,14.075
			c9.035,4.507,10.814,5.374,19.17,1.018C169.627,180.908,182.766,168.312,190.646,153.239z"/>
		
			<linearGradient id="SVGID_14_" gradientUnits="userSpaceOnUse" x1="726.5127" y1="-657.9722" x2="712.9367" y2="-525.3434" gradientTransform="matrix(0.9993 -0.0399 0.0399 0.9993 -536.6445 746.6188)">
			<stop  offset="0.3926" style="stop-color:#00103F;stop-opacity:0.2144"/>
			<stop  offset="0.4356" style="stop-color:#001C3F;stop-opacity:0.91"/>
			<stop  offset="0.4479" style="stop-color:#FFFFFF;stop-opacity:0.32"/>
		</linearGradient>
		<path opacity="0.31" fill="url(#SVGID_14_)" d="M190.646,153.239c15.554-29.737,12.442-67.738-4.587-91.692
			c0,0,8.481,50.346-17.19,80.02c-21.723,25.107-52.266,30.424-53.756,33.014c-1.488,2.592,9.502,9.57,18.535,14.075
			c9.035,4.507,10.814,5.374,19.17,1.018C169.627,180.908,182.766,168.312,190.646,153.239z"/>
		
			<linearGradient id="SVGID_15_" gradientUnits="userSpaceOnUse" x1="642.3428" y1="-573.438" x2="717.4263" y2="-686.314" gradientTransform="matrix(1.0818 -0.0201 0.2121 0.9616 -442.2499 752.1554)">
			<stop  offset="0" style="stop-color:#000000"/>
			<stop  offset="0.2454" style="stop-color:#000000;stop-opacity:0"/>
		</linearGradient>
		<path opacity="0.74" fill="url(#SVGID_15_)" d="M171.758,69.398c0,0,19.707,46.175-3.611,73.239
			c-9.551,11.082-21.555,18.198-32.949,21.759c-16.852,5.268-31.938,3.748-32.639,5.222c-1.258,2.638,13.686,10.79,24.01,15.954
			c6.125,3.067,10.157,5.104,13.438,6.422c3.117,1.254,6.256,1.252,10.656-0.729C202.137,168.127,197.727,103.236,171.758,69.398z"
			/>
	</g>
</g>
</svg>
