<?xml version="1.0" encoding="utf-8"?>
<!-- Generator: Adobe Illustrator 14.0.0, SVG Export Plug-In . SVG Version: 6.00 Build 43363)  -->
<!DOCTYPE svg PUBLIC "-//W3C//DTD SVG 1.1//EN" "http://www.w3.org/Graphics/SVG/1.1/DTD/svg11.dtd">
<svg version="1.1" id="Calque_1" xmlns="http://www.w3.org/2000/svg" xmlns:xlink="http://www.w3.org/1999/xlink" x="0px" y="0px"
	 width="6144px" height="2016px" viewBox="0 0 6144 2016" enable-background="new 0 0 6144 2016" xml:space="preserve">
<path fill="#3F3F3F" d="M6140.62,1737.202c0,149.832-121.452,271.344-271.261,271.344H274.18
	c-149.82,0.012-271.32-121.5-271.32-271.344V272.134c0-149.82,121.5-271.32,271.32-271.32h5595.167
	c149.809,0,271.261,121.5,271.261,271.32v1465.068H6140.62z"/>
<g id="PLAY_2_">
	<g>
		<defs>
			<path id="SVGID_1_" d="M1332.988,884.566l-276.756-159.78c0,0-504.192-291.132-533.832-308.244
				c-29.641-17.112-59.173-6.744-59.173,29.016c0,59.58,0,621.601,0,621.601s0,607.38,0,634.212
				c0,26.808,21.108,38.364,46.86,23.508c25.74-14.88,546.145-315.348,546.145-315.348l276.743-159.769
				c0,0,234.816-135.563,266.028-153.576c31.212-18.035,28.212-42.756,1.872-56.939
				C1574.548,1025.05,1332.988,884.566,1332.988,884.566z"/>
		</defs>
		<clipPath id="SVGID_2_">
			<use xlink:href="#SVGID_1_"  overflow="visible"/>
		</clipPath>
		
			<linearGradient id="SVGID_3_" gradientUnits="userSpaceOnUse" x1="2530.4321" y1="1426.7891" x2="2530.4321" y2="1313.4863" gradientTransform="matrix(12 0 0 -12 -29559.1406 17508.8125)">
			<stop  offset="0" style="stop-color:#257CB0"/>
			<stop  offset="0.2863" style="stop-color:#4A93B5"/>
			<stop  offset="0.767" style="stop-color:#78BCBB"/>
			<stop  offset="1" style="stop-color:#89CFBD"/>
		</linearGradient>
		<polygon clip-path="url(#SVGID_2_)" fill="url(#SVGID_3_)" points="463.24,387.346 463.24,1067.158 463.24,1746.982 
			1148.848,1067.17 		"/>
	</g>
	<g>
		<defs>
			<path id="SVGID_4_" d="M1332.988,884.566l-276.756-159.78c0,0-504.192-291.132-533.832-308.244
				c-29.641-17.112-59.173-6.744-59.173,29.016c0,59.58,0,621.601,0,621.601s0,607.38,0,634.212
				c0,26.808,21.108,38.364,46.86,23.508c25.74-14.88,546.145-315.348,546.145-315.348l276.743-159.769
				c0,0,234.816-135.563,266.028-153.576c31.212-18.035,28.212-42.756,1.872-56.939
				C1574.548,1025.05,1332.988,884.566,1332.988,884.566z"/>
		</defs>
		<clipPath id="SVGID_5_">
			<use xlink:href="#SVGID_4_"  overflow="visible"/>
		</clipPath>
		
			<linearGradient id="SVGID_6_" gradientUnits="userSpaceOnUse" x1="2501.8652" y1="1398.6699" x2="2574.3442" y2="1398.6699" gradientTransform="matrix(12 0 0 -12 -29559.1406 17508.8125)">
			<stop  offset="0" style="stop-color:#52C1AD"/>
			<stop  offset="1" style="stop-color:#DEE89A"/>
		</linearGradient>
		<polygon clip-path="url(#SVGID_5_)" fill="url(#SVGID_6_)" points="1332.988,884.566 1056.232,724.786 463.24,382.402 
			463.24,387.346 1148.848,1067.17 		"/>
	</g>
	<g>
		<defs>
			<path id="SVGID_7_" d="M1332.988,884.566l-276.756-159.78c0,0-504.192-291.132-533.832-308.244
				c-29.641-17.112-59.173-6.744-59.173,29.016c0,59.58,0,621.601,0,621.601s0,607.38,0,634.212
				c0,26.808,21.108,38.364,46.86,23.508c25.74-14.88,546.145-315.348,546.145-315.348l276.743-159.769
				c0,0,234.816-135.563,266.028-153.576c31.212-18.035,28.212-42.756,1.872-56.939
				C1574.548,1025.05,1332.988,884.566,1332.988,884.566z"/>
		</defs>
		<clipPath id="SVGID_8_">
			<use xlink:href="#SVGID_7_"  overflow="visible"/>
		</clipPath>
		
			<linearGradient id="SVGID_9_" gradientUnits="userSpaceOnUse" x1="2538.104" y1="1370.1377" x2="2538.104" y2="1313.0742" gradientTransform="matrix(12 0 0 -12 -29559.1406 17508.8125)">
			<stop  offset="0" style="stop-color:#EC413D"/>
			<stop  offset="0.1668" style="stop-color:#DA4452"/>
			<stop  offset="0.5748" style="stop-color:#B0487A"/>
			<stop  offset="0.8619" style="stop-color:#954A92"/>
			<stop  offset="1" style="stop-color:#8A4A9D"/>
		</linearGradient>
		<polygon clip-path="url(#SVGID_8_)" fill="url(#SVGID_9_)" points="463.24,1746.982 463.24,1751.926 1056.232,1409.53 
			1332.976,1249.75 1148.848,1067.17 		"/>
	</g>
	<g>
		<defs>
			<path id="SVGID_10_" d="M1332.988,884.566l-276.756-159.78c0,0-504.192-291.132-533.832-308.244
				c-29.641-17.112-59.173-6.744-59.173,29.016c0,59.58,0,621.601,0,621.601s0,607.38,0,634.212
				c0,26.808,21.108,38.364,46.86,23.508c25.74-14.88,546.145-315.348,546.145-315.348l276.743-159.769
				c0,0,234.816-135.563,266.028-153.576c31.212-18.035,28.212-42.756,1.872-56.939
				C1574.548,1025.05,1332.988,884.566,1332.988,884.566z"/>
		</defs>
		<clipPath id="SVGID_11_">
			<use xlink:href="#SVGID_10_"  overflow="visible"/>
		</clipPath>
		
			<linearGradient id="SVGID_12_" gradientUnits="userSpaceOnUse" x1="2579.8496" y1="1385.3545" x2="2579.8496" y2="1354.9229" gradientTransform="matrix(12 0 0 -12 -29559.1406 17508.8125)">
			<stop  offset="0" style="stop-color:#F58879"/>
			<stop  offset="0.1194" style="stop-color:#F69079"/>
			<stop  offset="0.7128" style="stop-color:#FCB877"/>
			<stop  offset="1" style="stop-color:#FEC874"/>
		</linearGradient>
		<polygon clip-path="url(#SVGID_11_)" fill="url(#SVGID_12_)" points="1332.988,884.566 1148.848,1067.17 1332.976,1249.75 
			1649.26,1067.158 		"/>
	</g>
</g>
<path fill="#F9F9F9" d="M4779.557,1332.946c-25.752,0-49.248-4.752-70.525-14.244c-21.275-9.504-39.155-24.12-53.592-43.824h-4.319
	c2.88,23.088,4.319,44.977,4.319,65.652v162.708h-59.855V930.322h48.695l8.281,54.12h2.879
	c15.408-21.66,33.336-37.272,53.771-46.896c20.437-9.624,43.896-14.436,70.332-14.436c52.44,0,92.916,17.928,121.404,53.76
	c28.5,35.832,42.756,86.112,42.756,150.792c0,64.944-14.496,115.38-43.451,151.368
	C4871.271,1314.982,4831.048,1332.946,4779.557,1332.946z M4770.893,973.979c-40.404,0-69.625,11.195-87.66,33.552
	c-18.037,22.368-27.301,57.972-27.793,106.8v13.332c0,55.572,9.264,95.316,27.793,119.256c18.527,23.94,48.239,35.88,89.1,35.88
	c34.176,0,60.936-13.812,80.304-41.472c19.344-27.648,29.028-65.772,29.028-114.384c0-49.284-9.685-87.133-29.028-113.46
	C4833.279,987.13,4806.016,973.979,4770.893,973.979z"/>
<path fill="#F9F9F9" d="M5082.376,1325.722h-59.88V764.362h59.88V1325.722z"/>
<path fill="#F9F9F9" d="M5426.691,1325.722l-11.916-56.279h-2.879c-19.729,24.792-39.385,41.579-58.992,50.327
	c-19.596,8.797-44.076,13.177-73.404,13.177c-39.204,0-69.924-10.104-92.184-30.301c-22.261-20.195-33.373-48.924-33.373-86.22
	c0-79.836,63.864-121.691,191.568-125.556l67.128-2.172v-24.528c0-31.032-6.685-53.952-20.04-68.724
	c-13.332-14.809-34.717-22.2-64.032-22.2c-32.964,0-70.248,10.104-111.841,30.3l-18.407-45.815
	c19.5-10.584,40.824-18.876,64.056-24.889c23.209-6.012,46.465-9.023,69.805-9.023c47.136,0,82.067,10.452,104.808,31.38
	c22.716,20.928,34.08,54.479,34.08,100.668v269.844h-44.376V1325.722z M5291.404,1283.53c37.26,0,66.539-10.225,87.84-30.66
	c21.264-20.437,31.932-49.068,31.932-85.884v-35.712l-59.916,2.508c-47.615,1.716-81.924,9.084-102.996,22.224
	c-21.035,13.104-31.561,33.492-31.561,61.152c0,21.636,6.541,38.124,19.669,49.403
	C5249.488,1277.878,5267.812,1283.53,5291.404,1283.53z"/>
<path fill="#F9F9F9" d="M5505.832,930.322h64.199l86.593,225.492c18.996,51.479,30.792,88.632,35.376,111.491h2.88
	c3.132-12.288,9.696-33.252,19.655-62.987c9.984-29.712,42.648-121.021,97.944-273.996h64.248l-169.944,450.252
	c-16.824,44.496-36.491,76.067-59.004,94.739c-22.475,18.624-50.088,27.925-82.764,27.925c-18.287,0-36.324-2.04-54.144-6.12
	v-47.977c13.224,2.88,28.032,4.332,44.388,4.332c41.137,0,70.452-23.088,88.032-69.275l21.996-56.269L5505.832,930.322z"/>
<path fill="#F9F9F9" d="M3670.168,967.066c19.009,15.731,58.704,48.779,58.704,111.672c0,61.164-34.739,90.168-69.479,117.42
	c-10.752,10.74-23.16,22.355-23.16,40.572c0,18.155,12.396,28.092,21.527,35.544l29.784,23.111
	c36.385,30.612,69.433,58.752,69.433,115.836c0,77.736-75.265,156.276-217.488,156.276c-119.939,0-177.804-57.048-177.804-118.284
	c0-29.76,14.819-71.916,63.685-100.896c51.239-31.429,120.756-35.521,157.955-38.064c-11.615-14.868-24.815-30.588-24.815-56.184
	c0-14.04,4.152-22.32,8.268-32.292c-9.132,0.84-18.216,1.668-26.496,1.668c-87.636,0-137.256-65.34-137.256-129.816
	c0-38.052,17.389-80.256,52.908-110.82c47.16-38.867,103.392-45.504,148.092-45.504h170.328l-52.932,29.772h-51.253V967.066z
	 M3611.428,1334.29c-6.611-0.864-10.764-0.864-18.996-0.864c-7.439,0-52.164,1.692-86.855,13.296
	c-18.192,6.564-71.137,26.412-71.137,85.164c0,58.692,57.096,100.933,145.596,100.933c79.345,0,121.572-38.124,121.572-89.353
	C3701.608,1401.202,3674.309,1378.966,3611.428,1334.29z M3635.428,1177.126c18.996-19.044,20.628-45.479,20.628-60.384
	c0-59.532-35.544-152.16-104.172-152.16c-21.528,0-44.664,10.74-57.9,27.3c-14.04,17.364-18.216,39.672-18.216,61.2
	c0,55.404,32.256,147.216,103.416,147.216C3599.86,1200.298,3622.145,1190.374,3635.428,1177.126z"/>
<path fill="#F9F9F9" d="M3149.5,1321.054c-131.268,0-201.456-102.396-201.456-194.892c0-108.18,88.332-200.616,213.889-200.616
	c121.319,0,197.292,94.92,197.292,194.856C3359.236,1217.794,3284.128,1321.054,3149.5,1321.054z M3252.7,1254.178
	c19.848-26.447,24.804-59.46,24.804-91.691c0-72.685-34.68-211.38-137.076-211.38c-27.239,0-54.479,10.752-74.292,28.128
	c-32.208,28.859-38.016,65.208-38.016,100.752c0,81.684,40.464,216.24,140.399,216.24
	C3200.716,1296.226,3233.752,1280.566,3252.7,1254.178z"/>
<path fill="#F9F9F9" d="M2701.96,1321.054c-131.292,0-201.492-102.396-201.492-194.892c0-108.18,88.368-200.616,213.889-200.616
	c121.355,0,197.315,94.92,197.315,194.856C2911.684,1217.794,2836.564,1321.054,2701.96,1321.054z M2805.184,1254.178
	c19.812-26.447,24.78-59.46,24.78-91.691c0-72.685-34.704-211.38-137.1-211.38c-27.229,0-54.492,10.752-74.292,28.128
	c-32.208,28.859-37.98,65.208-37.98,100.752c0,81.684,40.44,216.24,140.389,216.24
	C2753.188,1296.226,2786.2,1280.566,2805.184,1254.178z"/>
<path fill="#F9F9F9" d="M2437.396,1308.106l-118.729,27.396c-48.168,7.488-91.32,14.076-136.956,14.076
	c-229.151,0-316.284-168.528-316.284-300.528c0-161.027,123.673-310.416,335.389-310.416c44.844,0,87.972,6.624,126.984,17.424
	c62.256,17.437,91.308,39,109.584,51.469l-68.929,65.579l-29.04,6.612l20.748-33.216c-28.212-27.372-79.728-78-177.647-78
	c-131.172,0-229.98,99.66-229.98,244.92c0,156.024,112.92,302.964,293.856,302.964c53.184,0,80.52-10.775,105.443-20.76v-133.62
	l-125.327,6.636l66.384-35.735h176.004l-21.564,20.748c-5.855,5.004-6.659,6.684-8.315,13.26
	c-0.864,7.488-1.644,31.584-1.644,39.876v101.316H2437.396z"/>
<path fill="#F9F9F9" d="M3932.548,1284.202c-27.407-2.496-33.144-7.452-33.144-39.864v-9.144V774.49
	c0.168-1.788,0.276-3.624,0.443-5.353c3.349-29.04,11.641-34.02,37.404-48.983H3818.5l-62.28,29.892h63.469v0.372l-0.048-0.3
	v485.088v27.42c0,16.572-3.276,19.092-22.393,43.968H3944.2l30.72-18.216C3960.82,1286.662,3946.685,1285.858,3932.548,1284.202z"/>
<path fill="#F9F9F9" d="M4270.348,1291.834c-9.035,4.956-18.107,10.752-27.145,14.844c-27.252,12.36-55.271,15.672-80.051,15.672
	c-26.316,0-67.572-1.703-109.656-32.172c-58.488-41.256-84.048-112.151-84.048-173.964c0-127.764,103.872-190.416,188.784-190.416
	c29.688,0,60.228,7.404,84.959,23.101c41.185,27.155,51.9,62.604,57.637,81.575l-193.691,78.349l-63.492,4.943
	c20.58,104.7,91.476,165.66,169.824,165.66c42.035,0,72.551-14.808,100.572-28.8L4270.348,1291.834z M4192.876,1046.122
	c15.636-5.748,23.88-10.716,23.88-22.248c0-32.952-37.08-70.896-81.637-70.896c-33.012,0-94.799,25.571-94.799,114.588
	c0,14.016,1.655,28.848,2.508,43.739L4192.876,1046.122z"/>
<path fill="#F9F9F9" d="M4349.92,931.438v54.396h-6.611v-54.396h-18v-5.641h42.6v5.641H4349.92z"/>
<path fill="#F9F9F9" d="M4424.08,985.834v-54.9h-0.301l-16.752,54.9h-5.172l-16.896-54.9h-0.216v54.9h-6v-60.036h10.283
	l15.289,48.528h0.215l15.061-48.528h10.428v60.036H4424.08z"/>
<path fill="#F9F9FA" d="M2030.309,576.994h-41.257c0-5.676-3.912-21.744-11.735-48.216h-59.557
	c-8.076,26.04-12.12,42.107-12.12,48.216h-38.796c0-3.348,10.032-30.853,30.096-82.5c20.064-51.648,30.097-80.1,30.097-85.332
	h48.731c0,4.896,9.084,32.928,27.265,84.107C2021.212,544.45,2030.309,572.35,2030.309,576.994z M1970.752,504.154
	c-14.7-44.34-22.044-68.316-22.044-71.929h-2.064c0,3.349-7.607,27.324-22.812,71.929H1970.752z"/>
<path fill="#F9F9FA" d="M2196.532,576.994h-31.836c0-3.528-11.82-22.128-35.448-55.812c-24.744-35.496-38.844-59.76-42.275-72.828
	h-2.064c2.148,18.816,3.229,35.832,3.229,51.049c0,21.228,0.6,47.1,1.8,77.604h-31.717c1.284-26.64,1.933-55.896,1.933-87.78
	c0-31.367-0.648-58.056-1.933-80.052h38.28c0,4.561,10.608,22.74,31.836,54.528c22.596,33.768,35.58,56.676,38.928,68.712h1.933
	c-2.064-19.164-3.097-36.348-3.097-51.564c0-23.279-0.6-47.184-1.799-71.676h32.231c-1.212,21.312-1.8,48-1.8,80.052
	C2194.72,521.518,2195.32,550.774,2196.532,576.994z"/>
<path fill="#F9F9FA" d="M2383.36,487.27c0,24.408-7.824,45.721-23.46,63.937c-15.648,18.228-37.561,27.324-65.748,27.324
	c-12.721,0-30.252-0.517-52.596-1.548c1.115-25.956,1.68-55.225,1.68-87.78c0-31.272-0.564-57.96-1.68-80.052h22.56
	c3.696,0,9.192-0.133,16.5-0.385c7.296-0.252,12.072-0.384,14.304-0.384c31.021,0,53.508,7.74,67.488,23.208
	C2376.376,447.058,2383.36,465.61,2383.36,487.27z M2348.176,492.814c0-16.5-4.812-30.396-14.436-41.713
	c-9.624-11.292-24.324-16.943-44.088-16.943c-3.696,0-8.76,0.384-15.217,1.164c0.853,17.195,1.284,35.147,1.284,53.88
	c0,20.544,0.433,40.908,1.284,61.104c5.58,1.116,11.172,1.681,16.752,1.681c18.479,0,32.16-5.748,41.052-17.221
	C2343.7,523.294,2348.176,509.314,2348.176,492.814z"/>
<path fill="#F9F9FA" d="M2555.645,576.994h-38.16c-9.973-30.42-17.616-49.2-22.944-56.328c-5.328-7.14-13.92-10.704-25.776-10.704
	c-4.991,0-9.756,0.048-14.304,0.132c0,22.092,0.384,44.389,1.164,66.9h-35.832c1.116-25.956,1.681-55.224,1.681-87.78
	c0-31.271-0.564-57.96-1.681-80.052h22.296c2.58,0,7.969-0.132,16.177-0.384s15.792-0.384,22.752-0.384
	c39.443,0,59.172,13.487,59.172,40.476c0,21.396-11.256,36.3-33.769,44.736v1.932c8.677,2.4,16.284,9.18,22.812,20.292
	C2535.748,526.954,2544.557,547.342,2555.645,576.994z M2507.309,458.398c0-17.101-11.005-25.656-33-25.656
	c-8.076,0-15.217,0.6-21.396,1.8c0.947,13.32,1.416,30.684,1.416,52.08c4.728,0.18,8.724,0.252,11.988,0.252
	C2493.641,486.886,2507.309,477.395,2507.309,458.398z"/>
<path fill="#F9F9FA" d="M2740.42,489.982c0,26.376-8.076,48.252-24.24,65.615c-16.164,17.353-36.144,26.04-59.939,26.04
	c-22.692,0-41.688-7.968-56.977-23.916c-15.3-15.936-22.943-36.204-22.943-60.768c0-26.376,8.076-48.252,24.24-65.616
	c16.151-17.352,36.132-26.04,59.939-26.04c22.692,0,41.676,7.944,56.977,23.844C2732.776,445.042,2740.42,465.31,2740.42,489.982z
	 M2704.852,493.714c0-17.964-4.596-32.532-13.787-43.704c-9.204-11.172-20.545-16.752-34.032-16.752
	c-12.552,0-23.208,5.628-31.968,16.885c-8.76,11.256-13.164,25.476-13.164,42.672c0,17.867,4.619,32.411,13.859,43.632
	c9.24,11.22,20.557,16.824,33.973,16.824c12.539,0,23.208-5.652,31.968-16.956C2700.46,525.022,2704.852,510.814,2704.852,493.714z"
	/>
<path fill="#F9F9FA" d="M2813.309,576.994h-36.48c1.116-26.641,1.68-55.896,1.68-87.78c0-31.368-0.563-58.056-1.68-80.052h36.48
	c-1.116,21.66-1.681,48.336-1.681,80.052C2811.628,521.602,2812.192,550.87,2813.309,576.994z"/>
<path fill="#F9F9FA" d="M3000.148,487.27c0,24.408-7.824,45.721-23.46,63.937c-15.648,18.228-37.561,27.324-65.748,27.324
	c-12.721,0-30.252-0.517-52.597-1.548c1.116-25.956,1.681-55.225,1.681-87.78c0-31.272-0.564-57.96-1.681-80.052h22.561
	c3.695,0,9.191-0.133,16.5-0.385c7.296-0.252,12.072-0.384,14.304-0.384c31.021,0,53.508,7.74,67.488,23.208
	C2993.164,447.058,3000.148,465.61,3000.148,487.27z M2964.964,492.814c0-16.5-4.812-30.396-14.436-41.713
	c-9.624-11.292-24.324-16.943-44.088-16.943c-3.696,0-8.761,0.384-15.217,1.164c0.853,17.195,1.284,35.147,1.284,53.88
	c0,20.544,0.432,40.908,1.284,61.104c5.58,1.116,11.172,1.681,16.752,1.681c18.479,0,32.16-5.748,41.052-17.221
	C2960.488,523.294,2964.964,509.314,2964.964,492.814z"/>
<path fill="#F9F9FA" d="M3248.02,576.994h-41.256c0-5.676-3.911-21.744-11.748-48.216h-59.556
	c-8.076,26.04-12.12,42.107-12.12,48.216h-38.784c0-3.348,10.032-30.853,30.097-82.5c20.063-51.648,30.096-80.1,30.096-85.332
	h48.731c0,4.896,9.097,32.928,27.265,84.107C3238.912,544.45,3248.02,572.35,3248.02,576.994z M3188.464,504.154
	c-14.7-44.34-22.056-68.316-22.056-71.929h-2.064c0,3.349-7.596,27.324-22.8,71.929H3188.464z"/>
<path fill="#F9F9FA" d="M3398.38,453.106c0,20.544-7.632,35.712-22.884,45.504s-33.96,14.699-56.137,14.699
	c-4.044,0-6.911-0.084-8.64-0.252c0,16.164,0.468,37.465,1.416,63.937h-36.228c1.115-24.828,1.68-54.096,1.68-87.78
	c0-30.936-0.564-57.624-1.68-80.052h22.428c3.18,0,9.275-0.132,18.3-0.384c9.023-0.252,16.836-0.385,23.46-0.385
	c16.319,0,30.12,3.696,41.376,11.089C3392.728,426.874,3398.38,438.07,3398.38,453.106z M3365.128,460.198
	c0-18.384-12.204-27.588-36.612-27.588c-6.107,0-12.552,0.647-19.331,1.932c0.948,16.248,1.416,34.632,1.416,55.176
	c2.147,0.181,4.644,0.252,7.476,0.252C3349.444,489.982,3365.128,480.058,3365.128,460.198z"/>
<path fill="#F9F9FA" d="M3552.988,453.106c0,20.544-7.632,35.712-22.872,45.504c-15.252,9.792-33.972,14.699-56.148,14.699
	c-4.044,0-6.911-0.084-8.64-0.252c0,16.164,0.468,37.465,1.416,63.937h-36.229c1.116-24.828,1.681-54.096,1.681-87.78
	c0-30.936-0.563-57.624-1.681-80.052h22.429c3.18,0,9.275-0.132,18.3-0.384c9.023-0.252,16.836-0.385,23.46-0.385
	c16.319,0,30.12,3.696,41.376,11.089C3547.336,426.874,3552.988,438.07,3552.988,453.106z M3519.736,460.198
	c0-18.384-12.204-27.588-36.612-27.588c-6.108,0-12.552,0.647-19.332,1.932c0.948,16.248,1.416,34.632,1.416,55.176
	c2.148,0.181,4.645,0.252,7.477,0.252C3504.052,489.982,3519.736,480.058,3519.736,460.198z"/>
<path fill="#F9F9FA" d="M3805.768,489.982c0,26.376-8.075,48.252-24.239,65.615c-16.164,17.364-36.144,26.04-59.94,26.04
	c-22.691,0-41.688-7.968-56.976-23.916c-15.288-15.936-22.943-36.204-22.943-60.768c0-26.376,8.075-48.252,24.239-65.616
	s36.145-26.04,59.94-26.04c22.691,0,41.688,7.944,56.976,23.844C3798.112,445.042,3805.768,465.31,3805.768,489.982z
	 M3770.188,493.714c0-17.964-4.597-32.532-13.788-43.704c-9.192-11.172-20.544-16.752-34.032-16.752
	c-12.552,0-23.208,5.628-31.968,16.885c-8.76,11.256-13.152,25.476-13.152,42.672c0,17.867,4.62,32.412,13.86,43.632
	c9.239,11.22,20.556,16.824,33.96,16.824c12.552,0,23.207-5.652,31.968-16.956C3765.809,525.022,3770.188,510.814,3770.188,493.714z
	"/>
<path fill="#F9F9FA" d="M3980.488,576.994h-31.836c0-3.528-11.809-22.128-35.448-55.812c-24.744-35.496-38.845-59.76-42.276-72.828
	h-2.064c2.148,18.816,3.229,35.832,3.229,51.049c0,21.228,0.6,47.1,1.8,77.604h-31.716c1.284-26.64,1.932-55.896,1.932-87.78
	c0-31.367-0.647-58.056-1.932-80.052h38.28c0,4.561,10.62,22.74,31.836,54.528c22.608,33.768,35.58,56.676,38.928,68.712h1.933
	c-2.064-19.164-3.097-36.348-3.097-51.564c0-23.279-0.6-47.184-1.8-71.676h32.232c-1.213,21.312-1.8,48-1.8,80.052
	C3978.688,521.518,3979.288,550.774,3980.488,576.994z"/>
</svg>
