<?xml version="1.0" encoding="utf-8"?>
<!-- Generator: Adobe Illustrator 14.0.0, SVG Export Plug-In . SVG Version: 6.00 Build 43363)  -->
<!DOCTYPE svg PUBLIC "-//W3C//DTD SVG 1.1//EN" "http://www.w3.org/Graphics/SVG/1.1/DTD/svg11.dtd">
<svg version="1.1" id="Calque_1" xmlns="http://www.w3.org/2000/svg" xmlns:xlink="http://www.w3.org/1999/xlink" x="0px" y="0px"
	 width="6144px" height="2016px" viewBox="0 0 6144 2016" enable-background="new 0 0 6144 2016" xml:space="preserve">
<g>
	<path fill="#3F3F3F" d="M6137.955,1736.447c0,149.839-121.458,271.354-271.275,271.354H271.328
		C121.504,2007.801,0,1886.286,0,1736.447V271.333C0,121.504,121.504,0,271.328,0H5866.68
		c149.817,0,271.275,121.504,271.275,271.333V1736.447z"/>
	<path fill="#FFFFFF" d="M1060.078,343.37H560.104c-59.907,0-108.495,48.553-108.495,108.497v1107.667
		c0,59.955,48.588,108.545,108.495,108.545h499.974c59.938,0,108.554-48.59,108.554-108.545V451.867
		C1168.631,391.923,1120.015,343.37,1060.078,343.37 M810.096,1588.41c-39.914,0-72.254-32.346-72.254-72.295
		c0-39.904,32.34-72.25,72.254-72.25c39.939,0,72.291,32.346,72.291,72.25C882.386,1556.064,850.035,1588.41,810.096,1588.41
		 M1083.381,1408.662h-546.58V591.617h546.58V1408.662z"/>
	<path fill="#FFFFFF" d="M1578.09,540.791l-30.379,92.03h-39.078l99.413-292.638h45.601l99.846,292.638h-40.385l-31.249-92.03
		H1578.09z M1674.035,511.282l-29.075-84.237c-6.099-19.126-10.44-36.469-14.783-53.393h-1.26
		c-3.914,16.924-8.703,35.182-14.355,52.947l-28.643,84.683H1674.035z"/>
	<path fill="#FFFFFF" d="M1792.581,422.686l41.245,117.684c6.96,19.512,12.598,36.902,16.957,54.248h1.296
		c4.774-17.345,10.823-34.736,17.783-54.248l40.824-117.684h39.951l-82.527,210.135h-36.469l-79.837-210.135H1792.581z"/>
	<path fill="#FFFFFF" d="M2126.447,582.488c0,18.211,0.892,35.978,3.077,50.333h-34.314l-3.494-26.474h-1.282
		c-11.269,16.524-34.308,31.254-64.262,31.254c-42.552,0-64.238-29.941-64.238-60.33c0-50.826,45.159-78.601,126.321-78.167v-4.348
		c0-17.345-4.792-49.079-47.725-48.587c-20.005,0-40.384,5.602-55.169,15.598l-8.712-25.654c17.401-10.829,43.01-18.2,69.482-18.2
		c64.729,0,80.317,43.854,80.317,85.984V582.488z M2089.115,525.58c-41.691-0.856-88.971,6.516-88.971,47.344
		c0,25.162,16.476,36.47,35.555,36.47c27.822,0,45.592-17.391,51.687-35.17c1.295-3.926,1.729-8.261,1.729-12.174V525.58z"/>
	<path fill="#FFFFFF" d="M2203.699,384.047c-14.302,0-23.865-11.263-23.865-24.738c0-13.478,9.997-24.295,24.739-24.295
		c14.789,0,24.339,10.817,24.339,24.295c0,13.475-9.55,24.738-24.721,24.738H2203.699z M2185.493,422.686h38.211v210.135h-38.211
		V422.686z"/>
	<rect x="2284.907" y="324.585" fill="#FFFFFF" width="38.209" height="308.236"/>
	<path fill="#FFFFFF" d="M2532.361,582.488c0,18.211,0.891,35.978,3.052,50.333h-34.348l-3.458-26.474h-1.282
		c-11.291,16.524-34.295,31.254-64.286,31.254c-42.503,0-64.238-29.941-64.238-60.33c0-50.826,45.171-78.601,126.379-78.167v-4.348
		c0-17.345-4.798-49.079-47.796-48.587c-19.946,0-40.384,5.602-55.098,15.598l-8.725-25.654c17.38-10.829,43.022-18.2,69.482-18.2
		c64.684,0,80.317,43.854,80.317,85.984V582.488z M2495.031,525.58c-41.691-0.856-89.031,6.516-89.031,47.344
		c0,25.162,16.512,36.47,35.614,36.47c27.809,0,45.594-17.391,51.675-35.17c1.319-3.926,1.742-8.261,1.742-12.174V525.58z"/>
	<path fill="#FFFFFF" d="M2591.354,324.585h38.224v131.536h0.901c13.436-23.427,37.731-38.206,71.593-38.206
		c52.114,0,88.585,43.419,88.585,106.809c0,75.541-47.761,112.877-94.632,112.877c-30.376,0-54.29-11.73-70.308-39.516h-0.928
		l-2.173,34.735h-32.943c1.3-14.355,1.681-35.591,1.681-54.249V324.585z M2629.578,548.62c0,4.733,0.445,9.515,1.34,13.875
		c7.35,26.462,29.955,44.721,57.297,44.721c40.378,0,63.804-32.557,63.804-80.769c0-42.54-21.698-78.541-62.498-78.541
		c-26.041,0-50.404,18.211-57.77,46.853c-1.271,4.794-2.173,10.008-2.173,16.08V548.62z"/>
	<rect x="2836.226" y="324.585" fill="#FFFFFF" width="38.198" height="308.236"/>
	<path fill="#FFFFFF" d="M2957.332,534.275c0.849,51.682,33.404,72.94,71.64,72.94c27.386,0,44.28-4.782,58.191-10.432l6.913,26.909
		c-13.417,6.082-36.904,13.477-70.326,13.477c-64.238,0-103.322-42.974-103.322-105.929c0-63.823,37.753-113.758,99.027-113.758
		c68.526,0,86.363,60.377,86.363,98.968c0,7.829-0.445,13.91-1.312,18.259L2957.332,534.275z M3068.91,506.935
		c0.422-23.896-10.008-62.123-52.56-62.123c-39.014,0-55.557,35.602-58.603,62.123H3068.91z"/>
	<path fill="#FFFFFF" d="M3326.35,637.602c-56.438,0-100.738-41.684-100.738-108.108c0-70.337,46.479-111.578,104.207-111.578
		c60.33,0,101.137,43.854,101.137,107.665c0,78.167-54.285,112.021-104.184,112.021H3326.35z M3327.639,608.96
		c36.47,0,63.799-34.302,63.799-82.068c0-35.604-17.767-80.335-62.932-80.335c-44.743,0-64.244,41.684-64.244,81.647
		c0,46.02,26.039,80.756,62.955,80.756H3327.639z"/>
	<path fill="#FFFFFF" d="M3477.01,479.594c0-22.172-0.492-39.517-1.805-56.908h33.894l2.167,34.289h0.854
		c10.43-19.5,34.737-39.06,69.448-39.06c29.088,0,74.323,17.379,74.323,89.453v125.464h-38.276V511.669
		c0-33.81-12.562-62.498-48.632-62.498c-24.751,0-44.252,17.812-51.214,39.071c-1.734,4.782-2.601,11.743-2.601,17.825v126.767
		h-38.159V479.594z"/>
	<path fill="#FFFFFF" d="M3851.623,372.352v50.334h54.66v29.086h-54.66v113.335c0,26.028,7.384,40.805,28.618,40.805
		c10.454,0,16.548-0.854,22.196-2.613l1.687,29.088c-7.335,2.602-19.076,5.226-33.82,5.226c-17.86,0-32.182-6.093-41.299-16.042
		c-10.383-11.755-14.742-30.436-14.742-55.174V451.772h-32.53v-29.086h32.53v-38.639L3851.623,372.352z"/>
	<path fill="#FFFFFF" d="M3947.111,324.585h38.206v131.102h0.843c6.068-10.875,15.633-20.814,27.375-26.907
		c11.298-6.963,24.727-10.865,39.095-10.865c28.196,0,73.317,17.379,73.317,89.885v125.02h-38.16V512.149
		c0-34.29-12.608-62.557-48.657-62.557c-24.727,0-43.829,17.39-51.188,38.217c-2.181,5.214-2.624,10.862-2.624,18.257v126.754
		h-38.206V324.585z"/>
	<path fill="#FFFFFF" d="M4207.58,534.275c0.868,51.682,33.423,72.94,71.628,72.94c27.353,0,44.297-4.782,58.222-10.432
		l6.913,26.909c-13.479,6.082-36.915,13.477-70.363,13.477c-64.221,0-103.313-42.974-103.313-105.929
		c0-63.823,37.782-113.758,99.003-113.758c68.578,0,86.416,60.377,86.416,98.968c0,7.829-0.445,13.91-1.312,18.259L4207.58,534.275z
		 M4319.171,506.935c0.375-23.896-10.01-62.123-52.551-62.123c-39.045,0-55.618,35.602-58.618,62.123H4319.171z"/>
	<path fill="#FFFFFF" d="M4509.326,384.047c-14.37,0-23.933-11.263-23.933-24.738c0-13.478,9.984-24.295,24.775-24.295
		c14.742,0,24.305,10.817,24.305,24.295c0,13.475-9.562,24.738-24.797,24.738H4509.326z M4491.043,422.686h38.202v210.135h-38.202
		V422.686z"/>
	<path fill="#FFFFFF" d="M4591.756,344.097c18.212-3.433,42.118-6.081,72.519-6.081c37.313,0,64.689,8.683,82.011,24.352
		c16.076,13.863,26.086,35.145,26.086,61.197c0,26.473-7.828,47.334-23.04,62.498c-19.946,21.306-52.523,32.133-89.416,32.133
		c-11.249,0-21.679-0.444-30.376-2.565v117.191h-37.783V344.097z M4629.539,484.762c8.227,2.179,19.127,3.047,31.268,3.047
		c46.01,0,73.36-22.559,73.36-62.076c0-39.073-27.351-57.729-69.025-57.729c-16.476,0-29.062,1.711-35.603,3.047V484.762z"/>
	<path fill="#FFFFFF" d="M4817.093,324.585h38.228v131.102h0.867c6.068-10.875,15.634-20.814,27.328-26.907
		c11.32-6.963,24.799-10.865,39.096-10.865c28.22,0,73.36,17.379,73.36,89.885v125.02h-38.18V512.149
		c0-34.29-12.609-62.557-48.659-62.557c-24.703,0-43.804,17.39-51.211,38.217c-2.183,5.214-2.602,10.862-2.602,18.257v126.754
		h-38.228V324.585z"/>
	<path fill="#FFFFFF" d="M5141.406,637.602c-56.439,0-100.736-41.684-100.736-108.108c0-70.337,46.477-111.578,104.229-111.578
		c60.33,0,101.112,43.854,101.112,107.665c0,78.167-54.26,112.021-104.158,112.021H5141.406z M5142.741,608.96
		c36.399,0,63.801-34.302,63.801-82.068c0-35.604-17.792-80.335-62.978-80.335c-44.697,0-64.268,41.684-64.268,81.647
		c0,46.02,26.04,80.756,62.952,80.756H5142.741z"/>
	<path fill="#FFFFFF" d="M5292.045,479.594c0-22.172-0.446-39.517-1.734-56.908h33.867l2.158,34.289h0.89
		c10.43-19.5,34.736-39.06,69.447-39.06c29.085,0,74.204,17.379,74.204,89.453v125.464h-38.157V511.669
		c0-33.81-12.608-62.498-48.657-62.498c-24.725,0-44.25,17.812-51.19,39.071c-1.756,4.782-2.67,11.743-2.67,17.825v126.767h-38.157
		V479.594z"/>
	<path fill="#FFFFFF" d="M5552.513,534.275c0.866,51.682,33.448,72.94,71.651,72.94c27.329,0,44.275-4.782,58.151-10.432
		l6.96,26.909c-13.501,6.082-36.915,13.477-70.337,13.477c-64.245,0-103.341-42.974-103.341-105.929
		c0-63.823,37.781-113.758,98.98-113.758c68.604,0,86.418,60.377,86.418,98.968c0,7.829-0.422,13.91-1.289,18.259L5552.513,534.275z
		 M5664.104,506.935c0.42-23.896-10.01-62.123-52.55-62.123c-39.093,0-55.571,35.602-58.617,62.123H5664.104z"/>
	<path fill="#FFFFFF" d="M1757.973,831.037l-257.421,757.747h117.883l76.859-232.672h249.248l79.023,232.672h121.146
		l-258.536-757.747H1757.973z M1819.054,955.624c8.69,33.822,18.059,68.944,30.124,106.89l69.372,200.913h-197.443l68.427-202.213
		C1799.952,1028.424,1809.825,993.009,1819.054,955.624"/>
	<path fill="#FFFFFF" d="M2477.821,1027.475c-78.074,0-140.629,30.142-182.262,87.424l-4.559-75.378h-104.869l0.621,9.645
		c3.071,46.96,4.396,98.629,4.396,172.835v584.057h114.612v-272.563c35.568,42.564,92.383,67.338,156.725,67.338
		c67.022,0,128.742-26.249,173.732-73.853c50.209-53.076,76.718-129.355,76.718-220.52c0-80.544-23.017-150.181-66.63-201.333
		C2603.607,1055.038,2543.799,1027.475,2477.821,1027.475 M2449.262,1122.376c102.197,0,147.942,94.679,147.942,188.479
		c0,121.012-58.361,196.179-152.285,196.179c-64.132,0-119.622-43.642-135.068-106.375c-2.635-9.737-4.089-22.606-4.089-37.126
		v-92.195c0-8.344,1.875-18.47,3.661-28.29c0.563-3.14,1.172-6.27,1.642-9.315
		C2328.167,1168.139,2384.917,1122.376,2449.262,1122.376"/>
	<path fill="#FFFFFF" d="M3068.183,1027.475c-78.073,0-140.617,30.142-182.284,87.424l-4.546-75.378H2776.5l0.603,9.645
		c3.082,46.995,4.389,98.629,4.389,172.835v584.057h114.677v-272.563c35.546,42.564,92.317,67.338,156.656,67.338
		c67.033,0,128.746-26.249,173.794-73.853c50.159-53.076,76.668-129.355,76.668-220.52c0-80.544-23.041-150.181-66.636-201.333
		C3193.971,1055.038,3134.157,1027.475,3068.183,1027.475 M3039.659,1122.376c102.161,0,147.888,94.679,147.888,188.479
		c0,121.012-58.395,196.179-152.283,196.179c-64.103,0-119.629-43.642-135.063-106.375c-2.655-9.737-4.032-22.606-4.032-37.126
		v-92.195c0-8.39,1.811-18.562,3.664-28.383c0.562-3.095,1.113-6.177,1.641-9.223
		C2918.513,1168.139,2975.286,1122.376,3039.659,1122.376"/>
	<path fill="#FFFFFF" d="M3807.771,1152.106c-106.996-41.438-141.285-74.029-141.285-134.23
		c0-50.697,40.289-101.815,130.316-101.815c74.275,0,121.809,25.828,134.582,33.774l9.728,6l32.344-95.674l-6.399-3.739
		c-19.194-11.262-73.925-37.466-166.949-37.466c-146.209,0-248.307,86.324-248.307,209.867c0,99.636,63.939,169.271,201.242,219.17
		c97.269,36.377,133.492,73.633,133.492,137.489c0,72.285-55.863,117.145-145.729,117.145c-58.523,0-118.76-17.074-165.239-46.853
		l-9.938-6.386l-30.773,97.889l5.66,3.75c43.256,28.897,124.726,49.805,193.728,49.805c197.047,0,266.916-120.145,266.916-223.036
		C4001.16,1271.735,3945.143,1206.309,3807.771,1152.106"/>
	<path fill="#FFFFFF" d="M4207.533,908.982l-112.456,35.298v95.24h-82.292v91.634h82.292v280.671
		c0,67.854,12.985,115.41,39.704,145.459c25.618,28.079,65.019,43.547,110.91,43.547c43.361,0,74.135-8.555,88.621-13.688
		l6.42-2.271l-5.485-91.797l-10.992,3.387c-14.472,4.442-29.392,6.165-53.319,6.165c-44.441,0-63.402-28.127-63.402-94.104v-277.367
		h138.287v-91.634h-138.287V908.982z"/>
	<path fill="#FFFFFF" d="M4629.938,1027.475c-160.413,0-272.424,119.71-272.424,291.068c0,166.21,108.402,282.288,263.634,282.288
		h1.078c131.23,0,272.422-91.42,272.422-292.158c0-81.633-25.242-151.737-73.057-202.786
		C4773.496,1054.604,4707.213,1027.475,4629.938,1027.475 M4626.632,1117.98c103.152,0,150.075,100.538,150.075,193.998
		c0,114.931-64.056,198.348-152.252,198.348h-1.104c-86.955,0-150.075-82.023-150.075-195.042
		C4473.275,1217.09,4520.692,1117.98,4626.632,1117.98"/>
	<path fill="#FFFFFF" d="M5245.801,1032.783l-6.867-1.759c-10.101-2.508-18.351-3.55-28.525-3.55
		c-59.977,0-113.791,35.311-143.745,92.286l-3.376-80.24h-102.869l0.656,9.645c3.044,45.376,4.334,96.332,4.334,165.101
		l-1.076,374.519h114.659v-292.192c0-15.902,1.101-30.95,3.14-44.428c12.962-70.196,60.309-115.55,120.636-115.55
		c11.743,0,20.978,0.961,30.776,1.922l12.258,1.266V1032.783z"/>
	<path fill="#FFFFFF" d="M5503.575,1026.385c-152.629,0-259.251,121.937-259.251,296.541c0,168.146,106.058,276.815,270.194,276.815
		c86.324,0,146.373-18.949,181.531-34.816l6.892-3.117l-22.01-85.421l-9.587,3.855c-31.243,12.704-72.752,25.689-143.651,25.689
		c-49.808,0-164.655-16.432-171.709-166.226l370.065,1.102l1.477-7.312c2.344-11.649,3.47-27.341,3.47-47.861
		C5730.996,1166.053,5671.439,1026.385,5503.575,1026.385 M5495.91,1113.598c34.924,0,63.26,10.805,84.168,32.11
		c32.977,33.563,38.766,82.994,39.469,106.715h-261.43C5368.734,1186.222,5410.148,1113.598,5495.91,1113.598"/>
</g>
</svg>
