<?xml version="1.0" encoding="utf-8"?>
<!-- Generator: Adobe Illustrator 14.0.0, SVG Export Plug-In . SVG Version: 6.00 Build 43363)  -->
<!DOCTYPE svg PUBLIC "-//W3C//DTD SVG 1.1//EN" "http://www.w3.org/Graphics/SVG/1.1/DTD/svg11.dtd">
<svg version="1.1" id="Calque_1" xmlns="http://www.w3.org/2000/svg" xmlns:xlink="http://www.w3.org/1999/xlink" x="0px" y="0px"
	 width="126px" height="138.582px" viewBox="0 0 126 138.582" enable-background="new 0 0 126 138.582" xml:space="preserve">
<path fill="#FFFFFF" d="M117.271,124.409c0,7.828-6.346,14.173-14.174,14.173H21.195c-7.828,0-14.174-6.346-14.174-14.173V67.005
	c0-7.828,6.346-14.173,14.174-14.173h81.902c7.828,0,14.174,6.346,14.174,14.173V124.409z"/>
<path fill="none" stroke="#FFFFFF" stroke-width="10" d="M86.896,58.082c0,13.669-11.081,24.75-24.75,24.75l0,0
	c-13.669,0-24.75-11.081-24.75-24.75v-19.75c0-13.669,11.081-24.75,24.75-24.75l0,0c13.669,0,24.75,11.081,24.75,24.75V58.082z"/>
</svg>
