<?xml version="1.0" encoding="utf-8"?>
<!-- Generator: Adobe Illustrator 14.0.0, SVG Export Plug-In . SVG Version: 6.00 Build 43363)  -->
<!DOCTYPE svg PUBLIC "-//W3C//DTD SVG 1.1//EN" "http://www.w3.org/Graphics/SVG/1.1/DTD/svg11.dtd">
<svg version="1.1" id="Calque_1" xmlns="http://www.w3.org/2000/svg" xmlns:xlink="http://www.w3.org/1999/xlink" x="0px" y="0px"
	 width="195px" height="188.333px" viewBox="0 0 195 188.333" enable-background="new 0 0 195 188.333" xml:space="preserve">
<path fill="none" stroke="#FFFFFF" stroke-width="13" stroke-linecap="round" stroke-linejoin="round" d="M188.5,171.833
	c0,5.523-4.477,10-10,10h-162c-5.523,0-10-4.477-10-10V34.167c0-5.523,4.477-10,10-10h162c5.523,0,10,4.477,10,10V171.833z"/>
<line fill="none" stroke="#FFFFFF" stroke-width="9" stroke-linecap="square" stroke-linejoin="bevel" x1="50.7" y1="4.5" x2="50.7" y2="43.167"/>
<line fill="none" stroke="#FFFFFF" stroke-width="9" stroke-linecap="square" stroke-linejoin="bevel" x1="98.917" y1="4.5" x2="98.917" y2="43.167"/>
<line fill="none" stroke="#FFFFFF" stroke-width="9" stroke-linecap="square" stroke-linejoin="bevel" x1="144.471" y1="4.5" x2="144.471" y2="43.167"/>
<rect x="125.034" y="104.125" fill="#FFFFFF" width="24" height="16.667"/>
<rect x="85.5" y="104.125" fill="#FFFFFF" width="24" height="16.667"/>
<rect x="45.992" y="104.125" fill="#FFFFFF" width="24" height="16.667"/>
<rect x="125.034" y="136.5" fill="#FFFFFF" width="24" height="16.667"/>
<rect x="85.5" y="136.5" fill="#FFFFFF" width="24" height="16.667"/>
<rect x="45.992" y="136.5" fill="#FFFFFF" width="24" height="16.667"/>
<rect x="125.034" y="71.833" fill="#FFFFFF" width="24" height="16.667"/>
<rect x="85.5" y="71.833" fill="#FFFFFF" width="24" height="16.667"/>
<rect x="45.992" y="71.833" fill="#FFFFFF" width="24" height="16.667"/>
</svg>
