<?xml version="1.0" encoding="utf-8"?>
<!-- Generator: Adobe Illustrator 14.0.0, SVG Export Plug-In . SVG Version: 6.00 Build 43363)  -->
<!DOCTYPE svg PUBLIC "-//W3C//DTD SVG 1.1//EN" "http://www.w3.org/Graphics/SVG/1.1/DTD/svg11.dtd">
<svg version="1.1" id="Calque_1" xmlns="http://www.w3.org/2000/svg" xmlns:xlink="http://www.w3.org/1999/xlink" x="0px" y="0px"
	 width="533px" height="535px" viewBox="0 0 533 535" enable-background="new 0 0 533 535" xml:space="preserve">
<circle fill="#FFFFFF" cx="267.091" cy="268.5" r="261.5"/>
<g>
	<path fill="#28385B" d="M355.863,258.133H180.438h-0.065v-0.013c-10.603,0.013-20.248,4.139-27.233,10.771
		c-6.944,6.602-11.266,15.686-11.272,25.632h0.013v0.025v92.865v0.065h-0.013c0.013,9.945,4.328,19.019,11.247,25.604
		c6.996,6.639,16.656,10.753,27.292,10.766v-0.013h0.032h175.425h0.066v0.013c10.609-0.013,20.268-4.127,27.244-10.753
		c6.966-6.599,11.287-15.685,11.3-25.656h-0.025v-0.026v-92.865v-0.052h0.025c-0.025-9.933-4.334-18.998-11.273-25.579
		c-6.99-6.658-16.661-10.79-27.311-10.797v0.013H355.863z"/>
	<path fill-rule="evenodd" clip-rule="evenodd" fill="#28385B" d="M369.299,137.665v103.499h-24.174l0.403-8.571
		c-1.64,3.489-3.67,6.099-6.078,7.823c-2.408,1.757-5.181,2.609-8.319,2.609c-3.565,0-6.533-0.825-8.877-2.479
		c-2.356-1.672-4.087-3.878-5.207-6.618c-1.12-2.773-1.796-5.65-2.083-8.63c-0.286-3.008-0.429-8.943-0.429-17.834v-69.798h19.878
		v80.55c0,4.36,3.565,7.927,7.94,7.927l0,0c4.347,0,7.914-3.567,7.914-7.927v-80.55H369.299L369.299,137.665z M272.308,244.419
		v-17.189l0,0c5.278,0,9.593-4.784,9.593-10.642V161.48c0-5.852-4.314-10.642-9.593-10.642v-17.17
		c5.252,0.104,9.774,1.191,13.59,3.254c4.021,2.173,7.12,5.011,9.28,8.5c2.187,3.488,3.658,7.094,4.478,10.778
		c0.809,3.716,1.198,9.347,1.198,16.942l0,0v26.177c0,9.601-0.377,16.662-1.118,21.146c-0.729,4.485-2.305,8.664-4.752,12.569
		c-2.408,3.879-5.533,6.768-9.32,8.611c-3.814,1.868-8.188,2.772-13.116,2.772H272.308L272.308,244.419z M272.308,150.838
		L272.308,150.838L272.308,150.838z M272.308,133.668v17.17l0,0l0,0c-5.279,0-9.603,4.79-9.603,10.642v55.108
		c0,5.858,4.323,10.642,9.603,10.642v17.189c-5.409-0.026-9.985-0.794-13.753-2.363c-3.841-1.594-6.802-3.989-8.91-7.178
		c-2.123-3.189-3.639-7.068-4.544-11.605c-0.169-0.82-0.312-1.712-0.443-2.682v-60.745c0.392-2.89,0.906-5.448,1.557-7.66
		c1.64-5.579,4.607-10.063,8.884-13.448c4.27-3.384,9.744-5.083,16.401-5.083L272.308,133.668L272.308,133.668z M244.657,99.297
		v-2.279h0.906L244.657,99.297L244.657,99.297z M272.308,227.229 M244.657,97.018v2.279l-26.053,65.73l-0.032,79.379h-22.813
		l-0.033-79.347l-28.683-68.178h24.687l14.553,50.65l14.326-50.514H244.657L244.657,97.018z M244.657,159.846
		c-0.598,4.412-0.903,9.607-0.903,15.601v27.421c0,7.433,0.298,13.336,0.903,17.723V159.846z"/>
	<path fill-rule="evenodd" clip-rule="evenodd" fill="#FFFFFF" d="M372.462,357.786h-22.246v-14.449h8.513l0.195-10.076
		c0-4.451-3.658-8.122-8.136-8.122h-0.572v-15.881c9.813-0.404,19.838,4.166,21.321,14.501c0.717,4.934,0.925,13.564,0.925,22.207
		V357.786L372.462,357.786z M350.216,385.331h1.171c4.087,0,7.419-3.334,7.419-7.434v-7.654c0.025-0.676,0.025-1.288,0.052-1.836
		l13.617-0.077l0.129,0.807v10.115c-2.107,12.535-12.196,19.383-22.388,19.278V385.331z M350.216,357.786h-8.931v10.856v8.409v0.846
		c0,4.1,3.332,7.434,7.419,7.434h1.512v13.199c-11.742-0.13-23.64-9.516-23.64-30.148v-25.982c0-7.784,0.755-13.928,2.304-18.406
		c1.549-4.504,4.204-7.837,7.641-10.336c3.723-2.707,8.683-4.191,13.695-4.399v15.881h-0.508l0,0c-4.466,0-8.138,3.671-8.138,8.122
		l-0.064,10.076h8.71V357.786L350.216,357.786z M294.176,396.409V383.82l0,0c4.374,0,7.953-2.941,7.953-6.561v-48.919
		c0-3.605-3.579-6.561-7.953-6.561v-9.099c12.706-5.324,21.4,3.918,21.413,17.847l0.039,43.555
		C315.641,391.41,307.598,402.644,294.176,396.409L294.176,396.409z M294.176,321.78 M294.176,312.682v9.099l0,0
		c-4.361,0-7.953,2.955-7.953,6.561v48.919c0,3.619,3.592,6.561,7.953,6.561v12.589c-2.955-1.368-6.158-3.581-9.595-6.758
		l-1.353,6.979l-14.938,0.221l0.099-111.805l18.145-0.026l-0.077,32.388C289.151,315.245,291.74,313.71,294.176,312.682
		L294.176,312.682z M212.161,392.334v-78.182h16.304l0.064,52.707c0.006,7.198-0.385,11.39,0.064,12.77
		c2.572,7.94,9.224,3.632,10.702-0.416c0.488-1.354,0.032-5.143,0.032-12.705l-0.007-52.355h18.173l-0.006,83.401l-14.582-0.014
		l0.026-10.829c-3.918,8.487-19.584,15.295-27.758,9.372C213.742,395.055,212.805,393.766,212.161,392.334L212.161,392.334z
		 M212.161,299.56v-14.526l1.777,0.013v14.514H212.161L212.161,299.56z M294.176,383.82 M212.161,285.033v14.526l-20.008-0.013
		l0.006,98.033h-18.171v-98.306l-18.134-0.04l0.006-14.293L212.161,285.033L212.161,285.033z M212.161,314.152h-1.778l0.066,51.887
		c0.006,7.94-0.189,13.877,0.058,16.559c0.286,3.215,0.332,6.794,1.653,9.736V314.152z"/>
</g>
</svg>
