<?xml version="1.0" encoding="utf-8"?>
<!-- Generator: Adobe Illustrator 14.0.0, SVG Export Plug-In . SVG Version: 6.00 Build 43363)  -->
<!DOCTYPE svg PUBLIC "-//W3C//DTD SVG 1.1//EN" "http://www.w3.org/Graphics/SVG/1.1/DTD/svg11.dtd">
<svg version="1.1" id="Calque_1" xmlns="http://www.w3.org/2000/svg" xmlns:xlink="http://www.w3.org/1999/xlink" x="0px" y="0px"
	 width="533px" height="535px" viewBox="0 0 533 535" enable-background="new 0 0 533 535" xml:space="preserve">
<circle fill="#FFFFFF" cx="267.091" cy="268.5" r="261.5"/>
<path fill="#28385B" d="M392.683,97.506H141.555c-25.233,0-45.622,20.185-45.622,45.041v250.751
	c0,24.875,20.386,45.058,45.622,45.058h251.128c25.195,0,45.566-20.185,45.566-45.058V142.547
	C438.248,117.688,417.878,97.506,392.683,97.506 M267.288,204.514c35.415,0,64.197,28.45,64.197,63.417
	c0,34.969-28.78,63.4-64.197,63.4c-35.402,0-64.215-28.433-64.215-63.4C203.072,232.963,231.889,204.514,267.288,204.514
	 M401.483,384.344c0,8.304-6.847,15.015-15.223,15.015H147.958c-8.392,0-15.186-6.711-15.186-15.015V244.737
	c0.622,0.071,1.22,0.175,1.84,0.175h25.34c-1.631,7.428-2.519,15.118-2.519,23.018c0,59.792,49.29,108.446,109.854,108.446
	c60.595,0,109.852-48.652,109.852-108.446c0-7.897-0.887-15.589-2.52-23.018h26.864V384.344z M403.31,193.929
	c0,8.306-6.779,15.032-15.207,15.032h-42.245c-8.392,0-15.191-6.726-15.191-15.032v-41.713c0-8.286,6.798-15.012,15.191-15.012
	h42.245c8.428,0,15.207,6.726,15.207,15.012V193.929z"/>
</svg>
