<?xml version="1.0" encoding="utf-8"?>
<!-- Generator: Adobe Illustrator 14.0.0, SVG Export Plug-In . SVG Version: 6.00 Build 43363)  -->
<!DOCTYPE svg PUBLIC "-//W3C//DTD SVG 1.1//EN" "http://www.w3.org/Graphics/SVG/1.1/DTD/svg11.dtd">
<svg version="1.1" id="Calque_1" xmlns="http://www.w3.org/2000/svg" xmlns:xlink="http://www.w3.org/1999/xlink" x="0px" y="0px"
	 width="131.367px" height="130.88px" viewBox="0 0 131.367 130.88" enable-background="new 0 0 131.367 130.88"
	 xml:space="preserve">
<g>
	<path fill="#FFFFFF" d="M17.426,43.543c-0.241,0.354-0.13,1.187,0.089,1.161c0.771-0.09,21.074-19.667,45.17-16.11
		c24.093,3.555,30.344,24.404,32.225,24.27c0.455-0.033,3.737-0.67,4.202-1.641c1.815-3.787-1.21-13.291-1.849-18.123
		c-0.839-6.371-2.763-5.738-7.854-8.853C58.749,5.503,21.585,37.43,17.426,43.543z"/>
	<path fill="#FFFFFF" d="M17.358,43.669c0,0,22.807-20.262,46.902-16.706c24.094,3.555,32.447,24.896,34.329,24.761
		c1.883-0.136,1.091-13.883,0.25-20.255c-0.839-6.371-0.191-8.451-5.283-11.565C62.095,0.669,27.691,19.314,17.358,43.669z"/>
	<path opacity="0.8" fill="#FFFFFF" d="M62.556,12.216C42.579,13.692,24.29,27.234,17.507,43.408c0,0,22.855-20.15,45.984-16.475
		c19.569,3.108,31.879,16.924,33.663,16.863c1.781-0.062,1.86-7.832,1.301-13.83c-0.56-6.002-0.679-7.175-5.519-10.041
		C83.199,14.163,72.678,11.466,62.556,12.216z"/>
	<path opacity="0.31" fill="#FFFFFF" d="M62.556,12.216C42.579,13.692,24.29,27.234,17.507,43.408c0,0,22.855-20.15,45.984-16.475
		c19.569,3.108,31.879,16.924,33.663,16.863c1.781-0.062,1.86-7.832,1.301-13.83c-0.56-6.002-0.679-7.175-5.519-10.041
		C83.199,14.163,72.678,11.466,62.556,12.216z"/>
	<path fill="#FFFFFF" d="M69.782,118.584c0.424,0.036,1.089-0.465,0.959-0.644c-0.453-0.623-27.282-8.635-35.957-31.206
		c-8.675-22.57,6.378-37.705,5.342-39.266c-0.25-0.379-2.469-3.344-3.534-3.272c-4.163,0.274-10.904,7.528-14.772,10.435
		c-5.1,3.834-3.615,5.188-3.824,11.11C16.734,101.396,62.468,117.968,69.782,118.584z"/>
	<path fill="#FFFFFF" d="M69.923,118.58c0,0-28.643-9.844-37.318-32.417c-8.674-22.569,5.709-40.2,4.675-41.761
		c-1.036-1.562-12.538,5.826-17.638,9.659c-5.101,3.834-7.217,4.287-7.427,10.21C10.921,100.859,43.821,121.52,69.923,118.58z"/>
	<path opacity="0.8" fill="#FFFFFF" d="M20.683,94.83c11.02,16.557,31.647,25.77,48.943,23.75c0,0-28.571-9.942-36.672-31.736
		c-6.854-18.439-0.909-35.82-1.83-37.334c-0.922-1.512-7.681,2.211-12.596,5.619c-4.916,3.408-5.873,4.087-5.991,9.669
		C12.302,76.026,15.099,86.441,20.683,94.83z"/>
	<path opacity="0.31" fill="#FFFFFF" d="M20.683,94.83c11.02,16.557,31.647,25.77,48.943,23.75c0,0-28.571-9.942-36.672-31.736
		c-6.854-18.439-0.909-35.82-1.83-37.334c-0.922-1.512-7.681,2.211-12.596,5.619c-4.916,3.408-5.873,4.087-5.991,9.669
		C12.302,76.026,15.099,86.441,20.683,94.83z"/>
	<path fill="#FFFFFF" d="M104.114,21.275c13.992,12.069,23.217,27.347,27.253,43.04c-0.566-17.87-8.324-35.456-22.93-48.053
		C93.829,3.666,75.296-1.422,57.536,0.645C73.652,2.33,90.121,9.209,104.114,21.275z"/>
	<path opacity="0.34" fill="#FFFFFF" d="M104.114,21.078c13.992,12.068,23.217,27.347,27.253,43.039
		c-0.566-17.869-8.324-35.455-22.93-48.051C93.829,3.469,75.296-1.62,57.536,0.447C73.652,2.132,90.121,9.011,104.114,21.078z"/>
	<path fill="#FFFFFF" d="M131.228,61.519c-1.202-16.966-8.894-33.468-22.79-45.452c-5.938-5.121-12.526-9.001-19.446-11.664
		c8.344,5.188,16.086,12.007,22.689,20.376c5.084,6.447,9.149,13.312,12.187,20.368c3.236,5.884,5.695,12.007,7.341,18.203
		C131.225,62.74,131.229,62.129,131.228,61.519z"/>
	<path fill="#FFFFFF" d="M88.34,119.519c-17.04,7.146-34.827,8.595-50.675,5.213c16.25,7.457,35.45,8.353,53.235,0.892
		c17.788-7.46,30.605-21.784,36.672-38.603C118.879,100.695,105.38,112.373,88.34,119.519z"/>
	<path opacity="0.34" fill="#FFFFFF" d="M88.52,119.607c-17.042,7.146-34.829,8.593-50.677,5.212
		c16.248,7.458,35.449,8.353,53.236,0.893c17.786-7.46,30.603-21.783,36.67-38.603C119.056,100.784,105.557,112.46,88.52,119.607z"
		/>
	<path opacity="0.59" fill="#FFFFFF" d="M40.231,125.854c15.723,6.485,33.924,6.957,50.847-0.142
		c7.23-3.033,13.64-7.2,19.107-12.208c-8.362,5.157-17.918,9.048-28.352,11.228c-8.04,1.679-15.995,2.257-23.667,1.83
		c-6.71,0.275-13.286-0.253-19.566-1.542C39.141,125.306,39.684,125.583,40.231,125.854z"/>
	<path fill="#FFFFFF" d="M7.054,60.151c1.752-18.396,8.88-34.756,19.347-47.125C12.152,23.824,2.292,40.323,0.464,59.525
		c-1.828,19.199,4.741,37.265,16.699,50.557C9.216,95.959,5.303,78.546,7.054,60.151z"/>
	<path opacity="0.34" fill="#FFFFFF" d="M6.892,60.266c1.754-18.395,8.882-34.756,19.348-47.124
		C11.989,23.938,2.13,40.438,0.302,59.639c-1.826,19.202,4.742,37.265,16.699,50.559C9.055,96.074,5.141,78.662,6.892,60.266z"/>
	<path opacity="0.69" fill="#FFFFFF" d="M24.199,14.756C11.056,25.551,2.042,41.371,0.302,59.639
		c-0.741,7.808-0.098,15.423,1.734,22.609C1.44,72.439,2.526,62.18,5.534,51.955c2.318-7.879,5.567-15.165,9.567-21.725
		c2.928-6.045,6.5-11.591,10.604-16.517C25.197,14.055,24.696,14.403,24.199,14.756z"/>
	<path fill="#FFFFFF" d="M110.177,36.331c-0.174-0.39-0.934-0.733-1.027-0.534c-0.327,0.698,5.551,28.074-10.065,46.536
		c-15.617,18.46-36.478,12.813-37.348,14.47c-0.21,0.401-1.391,3.502-0.816,4.404c2.243,3.516,11.845,5.939,16.253,7.932
		c5.813,2.629,6.287,0.675,11.581-1.99C120.62,91.105,113.152,43.04,110.177,36.331z"/>
	<path fill="#FFFFFF" d="M110.104,36.209c0,0,5.146,29.845-10.471,48.309c-15.618,18.459-37.993,14.328-38.864,15.986
		c-0.87,1.66,11.14,8.191,16.954,10.818c5.812,2.629,7.228,4.265,12.521,1.599C122.945,96.459,125.236,57.677,110.104,36.209z"/>
	<path opacity="0.8" fill="#FFFFFF" d="M112.965,90.799c9.216-17.619,7.373-40.137-2.718-54.33c0,0,5.026,29.831-10.187,47.414
		C87.19,98.76,69.092,101.91,68.208,103.445c-0.882,1.535,5.631,5.67,10.982,8.34c5.354,2.67,6.409,3.184,11.361,0.603
		C100.511,107.194,108.294,99.73,112.965,90.799z"/>
	<path opacity="0.31" fill="#FFFFFF" d="M112.965,90.799c9.216-17.619,7.373-40.137-2.718-54.33c0,0,5.026,29.831-10.187,47.414
		C87.19,98.76,69.092,101.91,68.208,103.445c-0.882,1.535,5.631,5.67,10.982,8.34c5.354,2.67,6.409,3.184,11.361,0.603
		C100.511,107.194,108.294,99.73,112.965,90.799z"/>
</g>
</svg>
