<?xml version="1.0" encoding="utf-8"?>
<!-- Generator: Adobe Illustrator 14.0.0, SVG Export Plug-In . SVG Version: 6.00 Build 43363)  -->
<!DOCTYPE svg PUBLIC "-//W3C//DTD SVG 1.1//EN" "http://www.w3.org/Graphics/SVG/1.1/DTD/svg11.dtd">
<svg version="1.1" id="Calque_1" xmlns="http://www.w3.org/2000/svg" xmlns:xlink="http://www.w3.org/1999/xlink" x="0px" y="0px"
	 width="533px" height="535px" viewBox="0 0 533 535" enable-background="new 0 0 533 535" xml:space="preserve">
<circle fill="#FFFFFF" cx="267.091" cy="268.5" r="261.5"/>
<path fill-rule="evenodd" clip-rule="evenodd" fill="#28385B" d="M189.46,94.218c21.048-6.143,46.225,9.072,49.449,31.019
	c1.461,17.263,1.461,34.829,1.745,52.092c43.607,0.285,87.499-1.47,131.107,0.579c16.382,2.635,31.606,15.802,33.653,32.771
	c6.428,21.368-10.238,46.538-31.891,50.045c-44.48,3.515-89.263,0.88-134.027,1.459c0.588,16.393-0.303,32.782,1.762,48.879
	c2.922,15.501,16.08,29.842,32.177,31.606c33.653,2.92,67.308,0,100.658,2.626c28.855,4.373,39.513,36.155,29.676,59.032
	c-10.037,23.265-36.522,24.951-58.344,24.951c-33.938-0.579-69.069,4.103-102.136-6.143
	c-50.037-15.217-87.786-64.674-87.499-117.051c-1.746-53.552-0.572-107.397-0.572-160.95
	C151.695,122.896,166.331,97.726,189.46,94.218z"/>
</svg>
