<?xml version="1.0" encoding="utf-8"?>
<!-- Generator: Adobe Illustrator 14.0.0, SVG Export Plug-In . SVG Version: 6.00 Build 43363)  -->
<!DOCTYPE svg PUBLIC "-//W3C//DTD SVG 1.1//EN" "http://www.w3.org/Graphics/SVG/1.1/DTD/svg11.dtd">
<svg version="1.1" id="Calque_1" xmlns="http://www.w3.org/2000/svg" xmlns:xlink="http://www.w3.org/1999/xlink" x="0px" y="0px"
	 width="35.2px" height="35.201px" viewBox="0 0 35.2 35.201" enable-background="new 0 0 35.2 35.201" xml:space="preserve">
<path fill="#FFFFFF" d="M35.159,16.427c-0.578-8.786-7.6-15.808-16.386-16.386V0H17.6h-1.173v0.041
	C7.64,0.619,0.618,7.641,0.041,16.427H0v1.174v1.173h0.041c0.577,8.787,7.599,15.809,16.386,16.386v0.042H17.6h1.173v-0.042
	c8.786-0.577,15.808-7.599,16.386-16.386H35.2v-1.173v-1.174H35.159z M11.018,3.837c-1.134,1.508-2.076,3.396-2.759,5.55H4.743
	C6.272,6.999,8.447,5.069,11.018,3.837 M3.515,11.733H7.64c-0.314,1.483-0.513,3.058-0.577,4.693H2.392
	C2.516,14.774,2.906,13.195,3.515,11.733 M2.392,18.773h4.671c0.064,1.637,0.263,3.211,0.577,4.693H3.515
	C2.906,22.005,2.516,20.426,2.392,18.773 M4.743,25.813h3.511c0.688,2.154,1.627,4.043,2.764,5.552
	C8.447,30.132,6.272,28.202,4.743,25.813 M16.427,32.703c-2.412-0.645-4.49-3.236-5.75-6.89h5.75V32.703z M16.427,23.467h-6.408
	c-0.332-1.462-0.541-3.041-0.61-4.693h7.018V23.467z M16.427,16.427H9.409c0.069-1.652,0.278-3.231,0.61-4.693h6.408V16.427z
	 M16.427,9.387h-5.75c1.26-3.652,3.338-6.244,5.75-6.889V9.387z M30.456,9.387h-3.51c-0.688-2.154-1.625-4.042-2.765-5.55
	C26.753,5.069,28.928,6.999,30.456,9.387 M18.773,2.498c2.411,0.645,4.489,3.236,5.75,6.889h-5.75V2.498z M18.773,11.733h6.408
	c0.332,1.462,0.536,3.041,0.609,4.693h-7.017V11.733z M18.773,18.773h7.017c-0.069,1.652-0.277,3.231-0.609,4.693h-6.408V18.773z
	 M18.773,32.703v-6.89h5.75C23.262,29.467,21.184,32.059,18.773,32.703 M24.181,31.365c1.135-1.509,2.077-3.397,2.765-5.552h3.51
	C28.928,28.202,26.753,30.132,24.181,31.365 M31.685,23.467h-4.126c0.314-1.482,0.514-3.057,0.578-4.693h4.67
	C32.684,20.426,32.294,22.005,31.685,23.467 M28.137,16.427c-0.064-1.636-0.264-3.21-0.578-4.693h4.126
	c0.609,1.462,0.999,3.041,1.122,4.693H28.137z"/>
</svg>
