<?xml version="1.0" encoding="utf-8"?>
<!-- Generator: Adobe Illustrator 14.0.0, SVG Export Plug-In . SVG Version: 6.00 Build 43363)  -->
<!DOCTYPE svg PUBLIC "-//W3C//DTD SVG 1.1//EN" "http://www.w3.org/Graphics/SVG/1.1/DTD/svg11.dtd">
<svg version="1.1" id="Calque_1" xmlns="http://www.w3.org/2000/svg" xmlns:xlink="http://www.w3.org/1999/xlink" x="0px" y="0px"
	 width="74.229px" height="74.125px" viewBox="0 0 74.229 74.125" enable-background="new 0 0 74.229 74.125" xml:space="preserve">
<path fill="#FFFFFF" stroke="#FFFFFF" stroke-linecap="round" stroke-linejoin="round" d="M68.206,5.73
	c0,0-7.812-7.221-10.339-4.693C55.082,3.821,8.188,49.303,6.908,50.583s-8.079,19.02-6.023,22.14
	c2.281,3.463,21.402-4.037,23.157-5.793c0.918-0.919,46.084-47.954,49.055-50.925C75.246,13.854,71.487,9.012,68.206,5.73z
	 M11.24,68.702c0,0-0.458-1.097-2.545-3.183c-2.086-2.087-2.969-2.726-2.969-2.726l3.732-10.235c0,0,2.823,1.192,6.915,5.283
	c4.091,4.092,5.214,6.845,5.214,6.845L11.24,68.702z"/>
</svg>
