<?xml version="1.0" encoding="utf-8"?>
<!-- Generator: Adobe Illustrator 14.0.0, SVG Export Plug-In . SVG Version: 6.00 Build 43363)  -->
<!DOCTYPE svg PUBLIC "-//W3C//DTD SVG 1.1//EN" "http://www.w3.org/Graphics/SVG/1.1/DTD/svg11.dtd">
<svg version="1.1" id="Calque_1" xmlns="http://www.w3.org/2000/svg" xmlns:xlink="http://www.w3.org/1999/xlink" x="0px" y="0px"
	 width="181.667px" height="181.463px" viewBox="0 0 181.667 181.463" enable-background="new 0 0 181.667 181.463"
	 xml:space="preserve">
<path fill="#FFFFFF" d="M29.623,2.424c10-5.5,15.334-0.334,17.667,2.666s26,36.334,26,36.334s3,6.334,0,10
	S54.123,68.257,54.123,72.257s15.333,24.667,22,31.667s25,20.666,29.667,21.666s7.999-1,9.333-2.333s11.166-12.832,12.5-14.166
	s5.334-4,11.667,0s36.001,26,37.667,27s5.666,3.667,4.5,10c-1.27,6.892-8.156,16.674-10.833,21
	c-4.333,7.001-19.333,15-33.333,14.333s-43.167-3.5-67-24.667c-23.042-20.465-51.167-52.333-57.667-61.833
	C0.306,76.922-0.71,51.758,0.29,39.758s2-17.667,9.333-24C16.957,9.424,29.623,2.424,29.623,2.424z"/>
<path fill="#FFFFFF" d="M163.99,18.539l-48.669-3.514l12.544,12.544l-26.374,26.69c0,0-5.27,3.595,0,8.864
	c5.268,5.269,18.982,18.982,18.982,18.982s3.597,4.098,7.778-0.084c4.181-4.181,26.875-27.191,26.875-27.191l12.251,12.25
	L163.99,18.539z"/>
</svg>
