<svg xmlns="http://www.w3.org/2000/svg" width="750.363" height="745.726" viewBox="122.5 127.137 750.363 745.726" enable-background="new 122.5 127.137 750.363 745.726"><path fill="#fff" d="M500 852.863c-47.627 0-93.841-9.332-137.356-27.738-42.021-17.771-79.754-43.213-112.155-75.612-32.4-32.399-57.84-70.135-75.614-112.155-18.405-43.517-27.738-89.729-27.738-137.356s9.333-93.841 27.738-137.356c17.773-42.021 43.213-79.756 75.614-112.156 32.4-32.4 70.134-57.84 112.155-75.613 43.517-18.405 89.729-27.738 137.356-27.738 47.628 0 93.841 9.333 137.356 27.738 42.021 17.773 79.756 43.213 112.155 75.613s57.84 70.135 75.612 112.156c18.406 43.516 27.738 89.729 27.738 137.356 0 47.628-9.332 93.841-27.738 137.356-17.772 42.021-43.213 79.756-75.612 112.155s-70.135 57.841-112.155 75.612c-43.515 18.406-89.728 27.738-137.356 27.738z"/><path fill="#fff" d="M500 167.137c183.836 0 332.863 149.028 332.863 332.863 0 183.836-149.027 332.863-332.863 332.863-183.835 0-332.863-149.027-332.863-332.863 0-183.835 149.028-332.863 332.863-332.863m0-40c-50.318 0-99.153 9.864-145.147 29.318-44.404 18.782-84.275 45.661-118.505 79.891s-61.11 74.102-79.892 118.507c-19.454 45.994-29.318 94.829-29.318 145.147s9.864 99.153 29.318 145.147c18.782 44.404 45.661 84.275 79.892 118.507 34.23 34.229 74.102 61.108 118.505 79.892 45.994 19.453 94.829 29.317 145.147 29.317s99.153-9.864 145.146-29.317c44.405-18.782 84.276-45.661 118.508-79.892 34.23-34.231 61.108-74.103 79.892-118.507 19.453-45.994 29.317-94.829 29.317-145.147 0-50.319-9.864-99.153-29.317-145.147-18.782-44.405-45.661-84.276-79.892-118.507-34.23-34.23-74.103-61.109-118.507-79.891-45.994-19.454-94.829-29.318-145.147-29.318z"/><path fill="#20202A" d="M694.028 612.146c-6.3 10.96-13.542 21.363-21.565 31.133-4.431-21-11.781-41.11-17.931-57.717-16.191-43.908-25.854-74.325-13.252-96.284 1.155-2.028 18.647-29.594 52.413-24.367 14.951 3.514 26.854 11.526 30.279 38.702 3.423 27.191-11.004 75.676-29.944 108.533m-91.574 81.209c-2.395 4.127-5.585 8.785-11.066 11.646-24.799 12.303-65.012 20.683-99.073 19.601 3.383-4.168 6.382-8.617 9.054-13.269 17.114-29.834 19.274-67.114 5.839-102.245-25.386-66.586-92.776-78.187-146.89-87.513-64.588-11.075-85.825-20.093-84.085-48.594 3.696-30.213 13.21-58.815 28.331-85.073 1.383-2.464 2.855-4.864 4.356-7.258 14.639 37.242 49.234 64.003 92.743 70.951 70.349 11.256 114.087-41.231 149.198-83.483 40.021-48.033 58.757-63.309 79.688-50.558 24.21 16.486 45.019 37.654 66.859 76.355-39.144-5.404-79.229 11.293-106.629 44.996-4.076 5.027-7.687 10.329-10.816 15.696-29.671 51.671-8.482 109.134 8.504 155.293 17.134 46.321 22.784 68.117 13.987 83.455m-162.383-16.714c-2.187 4.243-21.379 36.619-60.646 13.533-22.907-14.501-42.881-32.808-59.285-54.488-13.541-17.87-24.262-37.484-31.905-58.465 20.683 6.954 42.284 10.65 60.092 13.726 51.027 8.8 82.732 16.097 93.171 43.278 5.817 15.264 4.808 30.447-1.427 42.416m-46.133-375.097c29.564-17.766 86.239-31.546 143.885-22.847-15.98 14.289-29.65 30.767-41.058 44.39-33.09 39.825-55.286 63.658-84.03 59.071-20.831-3.366-34.42-16.688-40.046-32.654-5.149-14.566-.844-34.735 21.249-47.96m110.283-91.797c-160.259-2.332-292.104 125.726-294.444 286.028-2.354 160.275 125.699 292.127 286.006 294.478 160.238 2.318 292.108-125.74 294.44-286.019 2.372-160.3-125.741-292.152-286.002-294.487"/></svg>