<svg xmlns="http://www.w3.org/2000/svg" width="688.833" height="117.055" viewBox="80.782 154.073 688.833 117.055" enable-background="new 80.782 154.073 688.833 117.055"><g fill="#fff"><path d="M359.959 230.413c-4.662 4.715-10.271 7.053-16.846 7.012-5.814-.041-10.958-1.909-15.423-5.6-5.745-4.718-8.596-11.115-8.541-19.159.044-7.225 2.385-13.172 7.008-17.821 4.62-4.659 10.297-6.954 17.035-6.921 6.67.048 12.321 2.488 16.946 7.322 4.625 4.827 6.919 10.708 6.877 17.641-.054 6.951-2.397 12.799-7.056 17.526m-16.52-56.051c-6.805-.036-13.168 1.622-19.081 5.005-5.913 3.372-10.577 7.968-13.983 13.79-3.406 5.81-5.134 12.208-5.182 19.165-.067 10.395 3.483 19.391 10.666 26.994 7.186 7.603 16.232 11.44 27.161 11.521 10.436.065 19.337-3.559 26.693-10.865 7.36-7.309 11.083-16.268 11.156-26.899.064-10.717-3.576-19.83-10.943-27.343-7.356-7.503-16.196-11.294-26.487-11.368"/><path d="M449.146 212.08l-.078 13.008 21.082.149c-2.047 4.277-4.717 7.408-8.023 9.396-3.295 1.992-7.344 2.978-12.131 2.945-7.365-.062-13.539-2.537-18.525-7.453-4.992-4.924-7.463-10.891-7.417-17.92.042-6.796 2.5-12.551 7.37-17.273 4.867-4.717 10.893-7.049 18.055-7.001 8.23.052 15.406 3.372 21.535 9.942l9.824-9.592c-4.426-4.842-8.955-8.268-13.596-10.282-5.492-2.374-11.412-3.583-17.74-3.633-12.107-.076-21.971 4.09-29.585 12.523-6.413 7.089-9.654 15.45-9.715 25.078-.049 7.03 1.633 13.597 5.049 19.684 3.389 6.094 8.053 10.799 13.949 14.12 5.91 3.335 12.629 5.021 20.188 5.065 7.061.047 13.221-1.437 18.492-4.383 19.166-10.715 17.939-34.179 17.939-34.179l-36.673-.194zM535.572 220.433l9.932-24.929 9.543 25.054-19.475-.125zm2.955-44.235l-28.57 72.8h14.408l6.02-14.994h29.713l5.586 14.994h14.406l-27.516-72.8h-14.047zM748.693 230.402c-4.65 4.724-10.268 7.062-16.844 7.021-5.812-.041-10.955-1.908-15.412-5.604-5.756-4.727-8.605-11.109-8.557-19.153.059-7.234 2.391-13.172 7.016-17.821 4.613-4.659 10.289-6.961 17.041-6.921 6.676.051 12.318 2.488 16.941 7.314 4.621 4.831 6.91 10.717 6.865 17.649-.048 6.953-2.394 12.799-7.05 17.515m9.969-44.664c-7.354-7.511-16.189-11.303-26.482-11.374-6.809-.039-13.168 1.619-19.08 4.999-5.914 3.375-10.586 7.971-13.986 13.784-3.408 5.825-5.135 12.215-5.18 19.171-.072 10.399 3.484 19.394 10.67 26.998 7.176 7.604 16.23 11.44 27.164 11.515 10.43.068 19.32-3.554 26.688-10.854 7.373-7.317 11.08-16.274 11.16-26.903.059-10.724-3.585-19.838-10.954-27.336"/><path d="M261.064 224.654c-.069 10.587-6.008 12.772-10.839 12.746-4.578-.028-8.567-2.094-12.909-6.674l-8.499 9.325c5.613 6.4 12.927 9.658 21.732 9.722 7.474.05 13.606-2.078 17.742-6.157 4.259-4.209 6.618-10.312 6.668-18.164v-49.1h-13.896l.001 48.302zM642.335 236.584l-15.908-.113v-17.783s12.129.08 13.402.091c4.35.031 13.334.022 13.275 8.981-.038 6.205-4.353 8.86-10.769 8.824m-15.908-48.05l9.768.069c6.58.047 12.592 1.739 12.543 8.979-.016 2.786-1.629 8.875-10.254 8.809l-12.057-.073v-17.784zm28.156 21.812c2.514-1.361 7.25-5.681 7.293-12.832.07-9.636-5.281-21.095-24.48-21.225h-24.752v72.801l31.166-.084c14.658.104 22.596-8.869 22.676-21.157.074-11.284-8.172-15.838-11.903-17.503"/><path d="M178.416 235.209c-1.27 2.209-2.73 4.309-4.348 6.276-.893-4.231-2.375-8.286-3.615-11.637-3.265-8.854-5.211-14.985-2.672-19.414.234-.408 3.761-5.966 10.568-4.913 3.015.709 5.415 2.324 6.105 7.805.689 5.483-2.219 15.26-6.038 21.883m-18.463 16.374c-.482.832-1.125 1.771-2.23 2.348-5 2.48-13.108 4.17-19.976 3.951.682-.838 1.287-1.734 1.825-2.674 3.451-6.017 3.886-13.531 1.177-20.613-5.119-13.426-18.705-15.766-29.616-17.645-13.021-2.234-17.304-4.053-16.953-9.799.746-6.091 2.664-11.857 5.711-17.151.28-.497.576-.982.879-1.463 2.951 7.508 9.926 12.902 18.699 14.305 14.184 2.268 23.001-8.314 30.081-16.832 8.069-9.685 11.846-12.764 16.067-10.194 4.88 3.324 9.077 7.591 13.48 15.395-7.892-1.091-15.975 2.276-21.499 9.071-.822 1.014-1.549 2.083-2.181 3.165-5.982 10.418-1.71 22.002 1.715 31.309 3.455 9.342 4.594 13.733 2.821 16.827m-32.74-3.368c-.44.854-4.309 7.383-12.226 2.727-4.62-2.924-8.646-6.615-11.953-10.984-2.731-3.604-4.893-7.561-6.433-11.787 4.17 1.4 8.525 2.146 12.116 2.765 10.287 1.776 16.68 3.246 18.784 8.728 1.173 3.075.97 6.137-.288 8.551m-9.301-75.629c5.961-3.583 17.389-6.359 29.01-4.605-3.222 2.88-5.978 6.203-8.277 8.949-6.671 8.029-11.147 12.833-16.942 11.909-4.2-.678-6.94-3.364-8.074-6.584-1.039-2.936-.171-7.002 4.283-9.669m22.235-18.507c-32.312-.471-58.894 25.348-59.365 57.667-.475 32.314 25.343 58.898 57.664 59.375 32.307.465 58.894-25.354 59.365-57.668.478-32.319-25.352-58.904-57.664-59.374"/></g></svg>