<svg xmlns="http://www.w3.org/2000/svg" width="120" height="120"><circle fill="#fff" cx="60" cy="60" r="60"/><path fill="#999" d="M89.75 41.547c-2.189.971-4.543 1.627-7.012 1.922 2.52-1.511 4.457-3.902 5.367-6.754-2.359 1.399-4.971 2.415-7.752 2.963-2.227-2.373-5.398-3.855-8.91-3.855-6.742 0-12.207 5.466-12.207 12.208 0 .956.107 1.888.316 2.781-10.145-.51-19.139-5.369-25.158-12.754-1.053 1.802-1.654 3.898-1.654 6.136 0 4.235 2.156 7.971 5.43 10.16-2.002-.062-3.885-.612-5.529-1.525v.153c0 5.915 4.209 10.847 9.791 11.968-1.025.281-2.104.43-3.215.43-.785 0-1.553-.076-2.297-.219 1.553 4.85 6.062 8.379 11.402 8.477-4.178 3.275-9.441 5.227-15.16 5.227-.984 0-1.957-.059-2.912-.172 5.402 3.463 11.818 5.486 18.713 5.486 22.451 0 34.732-18.602 34.732-34.733 0-.528-.014-1.056-.035-1.579 2.383-1.723 4.453-3.873 6.09-6.32z"/></svg>