<?xml version="1.0" encoding="utf-8"?>
<!-- Generator: Adobe Illustrator 14.0.0, SVG Export Plug-In . SVG Version: 6.00 Build 43363)  -->
<!DOCTYPE svg PUBLIC "-//W3C//DTD SVG 1.1//EN" "http://www.w3.org/Graphics/SVG/1.1/DTD/svg11.dtd">
<svg version="1.1" id="Calque_1" xmlns="http://www.w3.org/2000/svg" xmlns:xlink="http://www.w3.org/1999/xlink" x="0px" y="0px"
	 width="533px" height="535px" viewBox="0 0 533 535" enable-background="new 0 0 533 535" xml:space="preserve">
<circle fill="#FFFFFF" cx="267.091" cy="268.5" r="261.5"/>
<path id="Facebook_1_" fill="#28385B" d="M224.99,166.324c0,8.928,0,48.785,0,48.785h-35.746v59.66h35.746v163.717h73.424V274.769
	h49.266c0,0,4.612-28.603,6.848-59.884c-6.417,0-55.839,0-55.839,0s0-34.707,0-40.786c0-6.095,8.005-14.299,15.921-14.299
	c7.895,0,24.566,0,39.999,0c0-8.125,0-36.187,0-62.109c-20.605,0-44.054,0-54.384,0C223.174,97.69,224.99,157.408,224.99,166.324z"
	/>
</svg>
