<?xml version="1.0" encoding="utf-8"?>
<!-- Generator: Adobe Illustrator 14.0.0, SVG Export Plug-In . SVG Version: 6.00 Build 43363)  -->
<!DOCTYPE svg PUBLIC "-//W3C//DTD SVG 1.1//EN" "http://www.w3.org/Graphics/SVG/1.1/DTD/svg11.dtd">
<svg version="1.1" id="Calque_1" xmlns="http://www.w3.org/2000/svg" xmlns:xlink="http://www.w3.org/1999/xlink" x="0px" y="0px"
	 width="479.449px" height="83.492px" viewBox="0 0 479.449 83.492" enable-background="new 0 0 479.449 83.492"
	 xml:space="preserve">
<g>
	<path fill="#28385B" stroke="#28385B" stroke-width="6" d="M73.535,79.486L59.066,50.603L44.699,79.486h-2.097L4.854,4.006h8.18
		l30.618,61.291L54.975,42.45L35.789,4.006h8.178l15.1,30.293L74.268,4.006h8.076L63.155,42.45l11.428,22.847l30.619-61.291h8.073
		l-37.645,75.48H73.535z"/>
	<path fill="#28385B" stroke="#28385B" stroke-width="6" d="M136.543,11.05v21.135h28.312v7.045h-28.312v33.213h32.4v7.044h-40.055
		V4.006h40.055v7.044H136.543z"/>
	<path fill="#0088FF" stroke="#0088FF" stroke-width="6" d="M195.882,11.207v20.965h29.124v6.988h-29.124v39.935h-7.595V4.222
		h39.732v6.985H195.882z"/>
	<path fill="#0088FF" stroke="#0088FF" stroke-width="6" d="M283.326,80.492c-5.594,0-10.837-1.006-15.729-3.019
		c-4.895-2.013-9.193-4.781-12.898-8.304c-3.706-3.522-6.622-7.631-8.757-12.327c-2.131-4.697-3.193-9.729-3.193-15.097
		c0-5.298,1.062-10.315,3.193-15.045c2.135-4.731,5.051-8.841,8.757-12.331c3.705-3.486,8.004-6.254,12.898-8.301
		C272.489,4.023,277.732,3,283.326,3c5.521,0,10.747,1.023,15.675,3.069c4.928,2.047,9.243,4.814,12.949,8.301
		c3.706,3.49,6.622,7.6,8.754,12.331c2.133,4.729,3.2,9.747,3.2,15.045c0,5.368-1.067,10.399-3.2,15.097
		c-2.132,4.696-5.048,8.805-8.754,12.327s-8.021,6.291-12.949,8.304S288.848,80.492,283.326,80.492z M283.326,10.044
		c-4.545,0-8.845,0.84-12.899,2.518c-4.055,1.676-7.585,3.942-10.59,6.792c-3.006,2.853-5.383,6.208-7.129,10.063
		c-1.749,3.859-2.622,7.969-2.622,12.329c0,4.363,0.873,8.471,2.622,12.328c1.746,3.859,4.141,7.231,7.181,10.116
		c3.043,2.883,6.571,5.148,10.594,6.791c4.017,1.646,8.299,2.467,12.844,2.467c4.544,0,8.823-0.82,12.842-2.467
		c4.021-1.643,7.55-3.908,10.592-6.791c3.042-2.885,5.437-6.257,7.184-10.116c1.746-3.857,2.621-7.965,2.621-12.328
		c0-4.36-0.875-8.47-2.621-12.329c-1.747-3.855-4.142-7.211-7.184-10.063c-3.042-2.85-6.57-5.116-10.592-6.792
		C292.149,10.884,287.87,10.044,283.326,10.044z"/>
	<path fill="#0088FF" stroke="#0088FF" stroke-width="6" d="M379.603,80.492c-5.597,0-10.838-1.006-15.731-3.019
		c-4.893-2.013-9.191-4.781-12.898-8.304s-6.623-7.631-8.755-12.327c-2.132-4.697-3.196-9.729-3.196-15.097
		c0-5.298,1.064-10.315,3.196-15.045c2.132-4.731,5.048-8.841,8.755-12.331c3.707-3.486,8.006-6.254,12.898-8.301
		C368.765,4.023,374.006,3,379.603,3c5.519,0,10.745,1.023,15.675,3.069c4.928,2.047,9.24,4.814,12.948,8.301
		c3.707,3.49,6.624,7.6,8.754,12.331c2.134,4.729,3.201,9.747,3.201,15.045c0,5.368-1.067,10.399-3.201,15.097
		c-2.13,4.696-5.047,8.805-8.754,12.327c-3.708,3.522-8.021,6.291-12.948,8.304C390.348,79.486,385.121,80.492,379.603,80.492z
		 M379.603,10.044c-4.548,0-8.848,0.84-12.897,2.518c-4.057,1.676-7.588,3.942-10.591,6.792c-3.007,2.853-5.386,6.208-7.132,10.063
		c-1.746,3.859-2.621,7.969-2.621,12.329c0,4.363,0.875,8.471,2.621,12.328c1.746,3.859,4.14,7.231,7.183,10.116
		c3.04,2.883,6.568,5.148,10.591,6.791c4.017,1.646,8.299,2.467,12.847,2.467c4.542,0,8.822-0.82,12.844-2.467
		c4.02-1.643,7.55-3.908,10.589-6.791c3.042-2.885,5.436-6.257,7.185-10.116c1.746-3.857,2.621-7.965,2.621-12.328
		c0-4.36-0.875-8.47-2.621-12.329c-1.749-3.855-4.143-7.211-7.185-10.063c-3.039-2.85-6.569-5.116-10.589-6.792
		C388.425,10.884,384.145,10.044,379.603,10.044z"/>
	<path fill="#0088FF" stroke="#0088FF" stroke-width="6" d="M476.449,11.05h-20.552v68.437h-7.34V11.05H427.9V4.006h48.549V11.05z"
		/>
</g>
</svg>
